<?xml version="1.0" encoding="utf-8"?>
<!-- Generator: Adobe Illustrator 22.1.0, SVG Export Plug-In . SVG Version: 6.00 Build 0)  -->
<svg version="1.1" xmlns="http://www.w3.org/2000/svg" xmlns:xlink="http://www.w3.org/1999/xlink" x="0px" y="0px"
	 viewBox="0 0 841.9 716.2" style="enable-background:new 0 0 841.9 716.2;" xml:space="preserve">
<style type="text/css">
	.st0{display:none;}
	.st1{display:inline;}
	.st2{fill:url(#SVGID_1_);}
	.st3{fill:url(#SVGID_2_);}
	.st4{fill:url(#SVGID_3_);}
	.st5{fill:url(#SVGID_4_);}
	.st6{fill:url(#SVGID_5_);}
	.st7{fill:url(#SVGID_6_);}
	.st8{fill:url(#SVGID_7_);}
</style>
<g id="Слой_1" class="st0">
	<g class="st1">
		
			<linearGradient id="SVGID_1_" gradientUnits="userSpaceOnUse" x1="599.1813" y1="311.4362" x2="670.5405" y2="311.4362" gradientTransform="matrix(-0.2426 -0.9701 0.9701 -0.2426 392.7548 712.0879)">
			<stop  offset="0" style="stop-color:#FFF33B"/>
			<stop  offset="5.948725e-02" style="stop-color:#FFE029"/>
			<stop  offset="0.1303" style="stop-color:#FFD218"/>
			<stop  offset="0.2032" style="stop-color:#FEC90F"/>
			<stop  offset="0.2809" style="stop-color:#FDC70C"/>
			<stop  offset="0.6685" style="stop-color:#F3903F"/>
			<stop  offset="0.8876" style="stop-color:#ED683C"/>
			<stop  offset="1" style="stop-color:#E93E3A"/>
		</linearGradient>
		<path class="st2" d="M594.1-29c7.3,10.4,12.6,22.6,13,35.3c0.4,12.7-4.4,25.9-14.4,33.9c-6.7,5.3-15,8-23.3,10.1
			c-9.9,2.5-22.3,3.6-28.6-4.5c-5.1-6.6-4.2-17.3-11.2-21.8c-4.7-3-10.7-1.7-16.1-0.3c-13.5,3.5-27.7,7.5-37.3,17.5
			c-1.9-5.6-3.7-11.2-5.6-16.8c18.1-3.2,36.1-6.7,54-10.7c2.9-0.7,6.2-1.6,7.6-4.2c1.4-2.6,0.4-5.9,0.8-8.8c0.9-6.2,7.8-9.5,14-10.4
			c6.2-0.9,12.8-0.6,18.1-3.9c2.8-1.8,5-4.4,7.5-6.7c5.3-4.8,12.3-7.7,19.4-8.2"/>
	</g>
	<g class="st1">
		
			<linearGradient id="SVGID_2_" gradientUnits="userSpaceOnUse" x1="589.0701" y1="318.5107" x2="695.8598" y2="318.5107" gradientTransform="matrix(-0.2426 -0.9701 0.9701 -0.2426 392.7548 712.0879)">
			<stop  offset="0" style="stop-color:#2484C6"/>
			<stop  offset="1" style="stop-color:#2484C6;stop-opacity:0"/>
		</linearGradient>
		<path class="st3" d="M499.5,41.9c0.2,6.9-9.6,10.2-15.6,6.7c-5.9-3.5-8.5-10.6-10.7-17.1c-1.7-5.1-3.4-10.7-1.9-15.9
			c1.5-5.2,7.8-9.3,12.4-6.6c3.3,1.9,4.8,6.6,8.5,7.7c1.8,0.5,3.8,0.1,5.6-0.4c8.8-2.3,17.7-4.6,26.5-7c-2.4-12.5,1-25.9,8.4-36.3
			s18.8-17.7,31.1-21c10.2-2.8,21.6-2.7,30.8,2.6c7,4,12,10.7,16,17.7C617-16.6,621.1-4.1,621,8.7s-4.5,25.7-13.5,34.8
			c-11.3,11.4-27.9,15.4-43.8,17.9c-4.6,0.7-9.4,1.3-13.9,0.3c-12.5-2.9-18.7-16.5-24.8-27.8c-0.7-1.3-1.5-2.6-2.9-3.1
			c-1.1-0.4-2.4-0.2-3.6,0.1c-4.4,1-8.9,2.1-13.3,3.1c-3.5,0.8-8,4.5-5.3,7"/>
	</g>
	<g class="st1">
		<g>
			<linearGradient id="SVGID_3_" gradientUnits="userSpaceOnUse" x1="358.3596" y1="328.0712" x2="471.1546" y2="328.0712">
				<stop  offset="0" style="stop-color:#FFF33B"/>
				<stop  offset="5.948725e-02" style="stop-color:#FFE029"/>
				<stop  offset="0.1303" style="stop-color:#FFD218"/>
				<stop  offset="0.2032" style="stop-color:#FEC90F"/>
				<stop  offset="0.2809" style="stop-color:#FDC70C"/>
				<stop  offset="0.6685" style="stop-color:#F3903F"/>
				<stop  offset="0.8876" style="stop-color:#ED683C"/>
				<stop  offset="1" style="stop-color:#E93E3A"/>
			</linearGradient>
			<path class="st4" d="M471.1,24.5c-13.5-0.9-22.4,11.7-24.1,23.8c-2.1,15.7,5.4,33.1-2,47.9c-6.2,12.4-21.8,15.9-32.1,23.8
				c-9.8,7.5-14.9,19.3-13.7,31.5c1.3,13.3,9.7,21,18.9,29.6c4.5,4.3,9.4,9.4,9.4,16.1c0,5-2.8,9-6.4,12.4
				c-7.2,6.7-16.4,10.8-23.4,17.7c-7.7,7.5-10.3,18-4.7,27.7c7.3,12.7,22,15.6,35,19.2c6.9,1.9,14.8,4.6,18.7,11.1
				c3.9,6.4,2.4,14.4-1.2,20.6c-8.5,14.7-26.7,17.8-41.1,23.6c-10.6,4.3-22.5,12.2-21.2,25.2c0.7,7.6,5.7,14.5,9.9,20.6
				c4.6,6.6,9.8,12.7,15.2,18.6c5.9,6.3,12,13.5,7.7,22.5c-3.1,6.4-8.9,11-12.9,16.8c-3.5,5.1-6.2,11.7-4.4,17.9
				c1.7,5.8,6.6,8.5,11.4,11.3c2.9,1.7,6.1,3.6,7.3,7c1.2,3.7-0.1,7.7-2,10.9c-4.5,7.3-12.8,9.7-20.5,12
				c-13.1,3.9-24.6,9.8-32.1,21.7c-7.2,11.4-8.4,25.9-3,38.3c12.5,28.6,49.1,22.6,69.2,41.8c5.3,5.1,8.7,11.3,8.5,18.7
				c0.6-0.8,1.2-1.6,1.8-2.4c-15.5,3.7-30.5,9.3-44.7,16.5c-2.9,1.5-0.3,5.8,2.5,4.3c13.8-7.1,28.4-12.4,43.5-16
				c1.1-0.3,1.8-1.3,1.8-2.4c0.9-29.9-36.2-34.6-56.7-43.3c-14.6-6.1-24.8-18.2-24.4-34.6c0.4-15.6,11.4-29.2,25.5-34.9
				c11.9-4.8,26.7-5.9,33.4-18.5c2.4-4.6,3.5-10.2,1.3-15c-2.4-5.4-7.7-7.5-12.4-10.5c-16.7-10.6,5.9-26.8,11.1-37.2
				c6.8-13.7-4.2-23.6-12.6-33.1c-5.8-6.6-11.2-13.7-15.6-21.3c-4.6-7.8-5.8-16.1,1.2-22.8c10.7-10.2,27.6-11.6,40.4-18.4
				c10.8-5.8,20.1-16.3,20.3-29.1c0.2-12.5-9.7-19.9-20.6-23.5c-13.5-4.5-33.3-6-37.9-22.4c-3.4-11.9,7.6-19.6,16.1-25.4
				c7.1-4.8,15.6-9.8,19.3-18c4.5-10-1.1-19.3-8.2-26.3c-4.4-4.3-9.6-8.1-13.2-13.2c-4-5.6-5.7-12.5-5.3-19.3
				c0.9-15.7,12.5-23.3,25.1-30.1c11.3-6.1,20.9-13.4,23.2-26.8c2.6-15.3-4.4-31.7,1-46.5c2.7-7.5,9.4-13.8,17.7-13.2
				C474.3,29.7,474.3,24.7,471.1,24.5L471.1,24.5z"/>
		</g>
	</g>
	<g class="st1">
		<g>
			<linearGradient id="SVGID_4_" gradientUnits="userSpaceOnUse" x1="470.6033" y1="338.897" x2="567.6995" y2="338.897">
				<stop  offset="0" style="stop-color:#FFF33B"/>
				<stop  offset="5.948725e-02" style="stop-color:#FFE029"/>
				<stop  offset="0.1303" style="stop-color:#FFD218"/>
				<stop  offset="0.2032" style="stop-color:#FEC90F"/>
				<stop  offset="0.2809" style="stop-color:#FDC70C"/>
				<stop  offset="0.6685" style="stop-color:#F3903F"/>
				<stop  offset="0.8876" style="stop-color:#ED683C"/>
				<stop  offset="1" style="stop-color:#E93E3A"/>
			</linearGradient>
			<path class="st5" d="M494.9,648c-2.1-30,30.6-45.4,50.3-61.2c9.7-7.8,18.5-17.2,22.3-29.3c3.6-11.1,2.5-23.4-1.9-34.1
				c-4.5-10.9-12.3-19.6-22.3-25.6c-10.2-6.1-22-9.7-31.5-17c-29.4-22.4,2.2-57.7,15-79.8c11-19.1,17.6-48.8-3.3-64.1
				c-5.5-4-12.6-6.4-16.6-12.1c-4.3-6.2-3.9-14.6-1.5-21.4c2.7-7.7,7.7-14.3,12.1-20.9c4.3-6.4,8.2-13.1,11.6-20
				c10.8-21.6,22.5-50.8,12.8-74.8c-4.7-11.8-14.4-17.9-25.8-22.3c-11.1-4.3-28.7-10.7-25.9-25.9c3.2-17.7,28.1-27,25.6-46.6
				c-1.4-11.4-12.2-16.9-21.2-21.8c-5.3-2.9-9.9-6.5-12.6-12c-2.6-5.3-3.2-11.3-3.6-17.1c-0.1-2,0-4.5-1-6.3c-1.3-2.4-4.3-1.8-3.8-5
				c0.6-3.1-4.3-4.5-4.8-1.3c-0.4,2-0.7,4.1,0.4,6c1.2,2.3,3.5,2.5,4.1,5.3c1.2,5.4,0.7,10.9,2.4,16.2c3.5,10.9,11.8,15.9,21.2,21.2
				c5.7,3.2,11.9,7.2,13.6,13.9c1.1,4.5-0.4,8.9-2.6,12.8c-4.9,8.3-12.5,14.7-17.8,22.7c-5,7.5-7.2,16.6-2.5,24.9
				c6.6,11.7,20.5,14.6,31.8,19.7c28.9,12.9,21.8,47.5,12.7,71.4c-5.7,14.9-13.5,28.4-22.3,41.6c-7.2,10.7-14.4,23.9-9.8,37.1
				c4.5,13,19.4,14.5,26.7,25.1c7.2,10.5,6.6,24.8,2.8,36.4c-8.8,26.8-39.1,48.9-34.3,79.6c4.1,26.1,34,29.4,51.5,43
				c10.4,8.2,17.1,21.1,17.9,34.3c0.9,13.7-5,25.8-14.5,35.4c-18.5,18.6-46.4,28.4-57.2,54.1c-2.4,5.8-3.5,11.8-3.1,18.1
				C490.1,651.2,495.1,651.2,494.9,648L494.9,648z"/>
		</g>
	</g>
	<g class="st1">
		<g>
			<linearGradient id="SVGID_5_" gradientUnits="userSpaceOnUse" x1="582.662" y1="342.3077" x2="587.4919" y2="342.3077">
				<stop  offset="0" style="stop-color:#FFF33B"/>
				<stop  offset="5.948725e-02" style="stop-color:#FFE029"/>
				<stop  offset="0.1303" style="stop-color:#FFD218"/>
				<stop  offset="0.2032" style="stop-color:#FEC90F"/>
				<stop  offset="0.2809" style="stop-color:#FDC70C"/>
				<stop  offset="0.6685" style="stop-color:#F3903F"/>
				<stop  offset="0.8876" style="stop-color:#ED683C"/>
				<stop  offset="1" style="stop-color:#E93E3A"/>
			</linearGradient>
			<path class="st6" d="M585.1,344.8c3.2,0,3.2-5,0-5C581.9,339.8,581.9,344.8,585.1,344.8L585.1,344.8z"/>
		</g>
	</g>
</g>
<g id="Слой_2">
	<g>
		<linearGradient id="SVGID_6_" gradientUnits="userSpaceOnUse" x1="216.7088" y1="355.4216" x2="668.8346" y2="355.4216">
			<stop  offset="0" style="stop-color:#FFF33B"/>
			<stop  offset="5.948725e-02" style="stop-color:#FFE029"/>
			<stop  offset="0.1303" style="stop-color:#FFD218"/>
			<stop  offset="0.2032" style="stop-color:#FEC90F"/>
			<stop  offset="0.2809" style="stop-color:#FDC70C"/>
			<stop  offset="0.6685" style="stop-color:#F3903F"/>
			<stop  offset="0.8876" style="stop-color:#ED683C"/>
			<stop  offset="1" style="stop-color:#E93E3A"/>
		</linearGradient>
		<path class="st7" d="M225.8,647.6c-9.5,9.5-12.2,25-4.9,36.7c55.8,13.8,113.2,20.7,170.7,20.3c1.8,0,3.8-0.1,5.2-1.2
			c2.1-1.6,2.3-4.7,2.7-7.3c1.5-9.7,9.1-17.6,17.9-22c8.8-4.4,18.7-6,28.4-7.4c59.9-9.1,119.7-18.1,179.6-27.2
			c10.4-1.6,21.2-3.3,30.1-9s15.4-16.5,12.8-26.7c-3.2-12.4-17.2-18.1-29.4-22.3c-12.1-4.3-26-11.2-27.4-24
			c-1.7-15.1,15-25.3,21.2-39.2c5.5-12.4,1.9-27.2-5.8-38.3c-7.7-11.1-19-19.1-30.3-26.6c-28.2-18.7-59.2-35.9-93-37.2
			c-3.8-0.2-7.7-0.1-11.2-1.8c-3.4-1.6-6.2-5.5-5.1-9.1c0.5-1.7,1.7-3,2.8-4.4c14.4-16.9,22.9-40,18.3-61.8
			c-3.2-15.2-13.7-29.1-27.7-35.9c-9.4-4.6-37.3-4.2-31.7-22.3c1-3.1,3.4-5.5,5.9-7.7c24.1-20.6,61.1-25.5,78.6-52
			c12.2-18.6,11.1-43.5,2.7-64c-8.3-20.2-23.1-37.7-41.7-49.1c-10.5-6.4-23.3-12.5-26.2-24.4c-3.6-14.8,10.2-27.3,19.5-39.3
			c8.6-11,14.3-24.4,16.2-38.3C492.8,17.8,484.7,25.9,468,29c-14.4,2.7-29.2,1.7-43.7,1.9c-22.9,0.3-45.8,4.2-67.6,11.4
			c-13.5,4.5-27.1,10.6-36,21.8s-11.2,28.4-2.1,39.3c4.1,4.9,9.9,7.9,15.7,10.4c20.7,8.7,43.7,11.4,63.4,22.1c3,1.6,6,3.5,8,6.3
			c3.3,4.7,3.2,11,1.9,16.5c-7,28.9-39.3,42.5-67.5,51.9c-28.2,9.4-60.5,23.1-67.4,52c-1.5,6.3-1.5,13.2,1.1,19.1
			c4.5,10.1,15.3,15.5,25.3,20c16,7.3,32,14.6,48,21.9c9.4,4.3,20.3,10.6,20.7,20.9c0.5,13.3-15.8,19.8-28.9,22.6
			c-28.8,6.3-60.2,16.1-75.3,41.4c-6.1,10.3-8.6,24.2-1.6,33.9c5,6.8,13.5,10,21.6,12.5c43.2,13.6,88.5,20.5,130.6,37.3
			c28.2,11.3,56.5,29.1,67.5,57.5c2.6,6.6,4.1,14,2.2,20.8c-2.6,9.3-11.1,16.1-20.3,19.2c-9.2,3.1-19,3.3-28.7,3.7
			c-63,2.5-125.5,15.9-184,39.4C242,636.7,232.7,640.7,225.8,647.6z"/>
		<g>
			<linearGradient id="SVGID_7_" gradientUnits="userSpaceOnUse" x1="216.2088" y1="355.6012" x2="669.3346" y2="355.6012">
				<stop  offset="0" style="stop-color:#FFF33B"/>
				<stop  offset="5.948725e-02" style="stop-color:#FFE029"/>
				<stop  offset="0.1303" style="stop-color:#FFD218"/>
				<stop  offset="0.2032" style="stop-color:#FEC90F"/>
				<stop  offset="0.2809" style="stop-color:#FDC70C"/>
				<stop  offset="0.6685" style="stop-color:#F3903F"/>
				<stop  offset="0.8876" style="stop-color:#ED683C"/>
				<stop  offset="1" style="stop-color:#E93E3A"/>
			</linearGradient>
			<path class="st8" d="M224,645.9c-6.7,7-10.5,16.5-9.7,26.3c0.4,4,1.4,10.4,4.3,13.4c1.4,1.5,3.3,1.6,5.3,2.1
				c3.8,0.9,7.5,1.8,11.3,2.6c27,6,54.3,10.5,81.9,13.3c13.8,1.4,27.7,2.4,41.5,3c7.1,0.3,14.2,0.5,21.3,0.6
				c5.2,0.1,12.1,1.4,16.9-0.8c4.1-1.9,4.4-6.2,5.1-10.2c1.2-6.2,4.9-11.4,9.7-15.3c10.2-8.4,24.1-10.1,36.7-12
				c57.2-8.7,114.5-17.3,171.7-26c19.5-2.9,48.2-7.1,51.1-31.7c2.6-22.3-23.2-27.9-38.6-34.8c-9.2-4.1-19.8-11.2-18.6-22.7
				c1-9.7,9.6-17.3,15.2-24.7c6.4-8.5,9.7-17.9,8.3-28.7c-1.4-10.8-6.8-20.6-14.1-28.6c-8.1-8.9-18.4-15.8-28.5-22.3
				c-10.6-6.9-21.4-13.5-32.7-19.1c-10.9-5.4-22.2-10-33.9-12.9c-5.8-1.5-11.7-2.5-17.7-3.1c-5.7-0.6-16.9,1.2-20.2-4.8
				c-2.4-4.5,5.9-12,8.3-15.7c3.3-5,6-10.3,8.2-15.8c4.3-10.7,6.2-22.4,4.9-33.9c-2.2-18.4-14.6-38-32.8-44.1
				c-6.3-2.1-13.1-2.8-19.4-5.2c-8.8-3.5-11.7-11.2-4-18.5c14.8-13.9,35.6-20.1,53-29.9c18-10.2,32.3-24.9,35.7-46.1
				c3.5-21.9-3.5-44.5-15.8-62.7c-6.1-9-13.5-17.1-22-23.9c-8.4-6.7-18.3-11-26.7-17.7c-9.9-7.9-12-18.7-5.6-29.6
				c5.8-9.9,14.5-17.6,20.6-27.4c6.1-9.7,9.9-20.6,11.6-32c0.3-2.3-2.3-4.4-4.2-2.4c-7.1,7.3-14.3,14.8-23.9,18.9
				c-12.1,5.2-26,5.1-38.9,5.1c-26,0-51.3,1.8-76.4,9.2c-19.5,5.7-42.1,14.6-50.1,35.1c-3.4,8.7-3.8,18.8,0.4,27.3
				c4.6,9.3,14.3,13.9,23.5,17.5c11.3,4.4,23.1,7.2,34.7,10.7c5.8,1.8,11.6,3.7,17.2,6.1c5.3,2.3,12.7,5.1,15.6,10.4
				c5.2,9.5-1.9,23.3-7.9,30.9c-6.2,7.8-14.4,13.6-23,18.4c-31.7,17.5-77.8,20.4-97.8,54.7c-4.7,8.1-7.6,18.1-6,27.5
				c1.6,9.7,8.4,16.8,16.5,21.7c21.1,12.8,45.8,19.2,67.1,31.7c9.1,5.3,17,15.8,7.7,25c-7,7-17.7,8.9-27,11
				c-19.5,4.5-39.5,10.5-55.6,22.9c-14.1,10.9-28.3,30.7-21.5,49.4c3.6,9.7,12.6,14.8,21.9,18c11.9,4.2,24.3,7.3,36.6,10.5
				c25.2,6.5,50.7,12.1,75.6,20.1c22.4,7.2,45.2,16.2,63.6,31.3c8.2,6.7,15.5,14.6,20.7,23.9c6.1,10.8,11.1,25.2,2.4,35.9
				c-8,10-21.4,12.3-33.5,13c-13,0.8-26,1.2-39,2.4c-52.4,5-104.1,17.3-153,36.8C242,633.9,232,638.2,224,645.9
				c-2.3,2.2,1.2,5.8,3.5,3.5c9.3-8.9,21.9-13.2,33.8-17.7c12.5-4.8,25.3-9.1,38.1-12.9c25.1-7.5,50.8-13.2,76.7-17.1
				c13.4-2,26.8-3.5,40.3-4.5c12.7-1,25.8-0.6,38.4-2.6c10.4-1.6,20.7-5.9,27.3-14.5c6.5-8.6,6.3-19.4,2.8-29.3
				c-14.9-42.5-63.9-60.7-103.3-72.3c-25-7.4-50.5-12.9-75.7-19.7c-11.4-3.1-24.6-5.5-34.8-11.7c-11.7-7.1-12.8-20.4-7.8-32.2
				c8.5-20.1,29.6-31.5,49.3-38.1c9.7-3.3,19.7-5.4,29.6-7.8c8.1-2,17-5.1,22.9-11.2c5.5-5.8,7-14.1,3.1-21.2
				c-4.8-8.6-14.7-12.8-23.2-16.7c-12.4-5.7-24.9-11.4-37.3-17c-9.7-4.4-21.2-8.5-28.2-16.9c-15.2-18.4,3.7-43.2,19.2-53.7
				c16.8-11.5,36.4-16.6,55.2-23.8c17-6.5,34.8-14.9,46.5-29.5c5.3-6.7,9.3-14.8,10.4-23.3c1.5-11.8-4.7-18.5-14.7-23.4
				c-10.5-5.2-21.8-8.5-33-11.7c-11.6-3.3-24-6.3-34.5-12.3c-10.8-6.2-15.1-17.3-12.2-29.3c2.8-11.5,11.3-19.9,21.3-25.6
				c10.8-6.2,23-9.9,35-13c13.3-3.4,26.9-5.6,40.6-6.4c23.2-1.5,49.8,3.5,71.2-7.9c8.3-4.5,15-11.4,21.5-18.1
				c-1.4-0.8-2.8-1.6-4.2-2.4c-1.8,12.3-6.3,24-13.4,34.3c-6.3,9-14.8,16.5-19.7,26.4c-3.9,8-4.6,17,0.2,24.8
				c4.8,7.8,13.3,12.5,21,17.1c19.6,11.6,35.4,28.5,44.1,49.7c8.8,21.3,9.7,47.9-5.7,66.5c-12.7,15.3-32.4,22.5-49.7,31.2
				c-8.5,4.3-16.8,8.9-24.1,15c-5.8,4.8-10.7,12-7.4,19.7c4.9,11.5,21.6,10.9,31.4,14.6c22.5,8.5,31.9,35.7,27.9,57.7
				c-2.1,11.6-7.2,22.5-14.2,32c-2.6,3.5-6.8,6.9-7.3,11.5c-0.5,4,1.9,7.8,5.2,9.9c4.1,2.6,9,2.6,13.7,2.8
				c6.7,0.3,13.4,1.2,19.9,2.7c12.3,2.7,24.1,7.3,35.3,12.8c11.1,5.4,21.7,11.8,32,18.5c10.5,6.8,21.1,13.7,29.5,23.1
				c8.2,9.2,14,21.9,12,34.5c-1.7,10.4-9.4,17.9-15.5,25.9c-5.1,6.7-9.4,14.5-7.7,23.3c1.6,8.5,8.5,14.6,15.8,18.7
				c14.3,8,49.6,13.4,39.7,37.7c-5,12.3-18.1,17.2-30.2,19.6c-13.1,2.6-26.4,4.2-39.5,6.1c-27.6,4.2-55.3,8.4-82.9,12.6
				c-13.8,2.1-27.6,4.2-41.4,6.3c-13.1,2-26.4,3.4-39.4,6.3c-10.5,2.4-20.9,6.7-27.9,15.3c-2.9,3.5-5.1,7.6-6.1,12.1
				c-0.8,3.4,0,6.7-4.4,8.1c-3.1,1-7.8,0.1-11.1,0c-27.1-0.2-54.2-2-81.1-5.4c-13.9-1.7-27.7-3.9-41.4-6.5c-6.3-1.2-12.7-2.5-19-3.9
				c-3.2-0.7-6.3-1.4-9.4-2.1c-3.2-0.7-7.6-0.7-9.3-3.7c-5.7-9.9-1.3-23.5,5.9-31.1C229.8,647.1,226.2,643.5,224,645.9z"/>
		</g>
	</g>
</g>
</svg>
