<?xml version="1.0" encoding="utf-8"?>
<!-- Generator: Adobe Illustrator 22.1.0, SVG Export Plug-In . SVG Version: 6.00 Build 0)  -->
<svg version="1.1" id="Слой_1" xmlns="http://www.w3.org/2000/svg" xmlns:xlink="http://www.w3.org/1999/xlink" x="0px" y="0px"
	 viewBox="0 0 190.8 135.4" style="enable-background:new 0 0 190.8 135.4;" xml:space="preserve">
<style type="text/css">
	.st0{fill:url(#SVGID_1_);}
	.st1{fill:url(#SVGID_2_);}
</style>
<g>
	
		<linearGradient id="SVGID_1_" gradientUnits="userSpaceOnUse" x1="39.7871" y1="65.8097" x2="111.1463" y2="65.8097" gradientTransform="matrix(-0.2426 -0.9701 0.9701 -0.2426 36.6553 167.9283)">
		<stop  offset="0" style="stop-color:#FFF33B"/>
		<stop  offset="5.948725e-02" style="stop-color:#FFE029"/>
		<stop  offset="0.1303" style="stop-color:#FFD218"/>
		<stop  offset="0.2032" style="stop-color:#FEC90F"/>
		<stop  offset="0.2809" style="stop-color:#FDC70C"/>
		<stop  offset="0.6685" style="stop-color:#F3903F"/>
		<stop  offset="0.8876" style="stop-color:#ED683C"/>
		<stop  offset="1" style="stop-color:#E93E3A"/>
	</linearGradient>
	<path class="st0" d="M135.5,29.1c7.3,10.4,12.6,22.6,13,35.3c0.4,12.7-4.4,25.9-14.4,33.9c-6.7,5.3-15,8-23.3,10.1
		c-9.9,2.5-22.3,3.6-28.6-4.5c-5.1-6.6-4.2-17.3-11.2-21.8c-4.7-3-10.7-1.7-16.1-0.3c-13.5,3.5-27.7,7.5-37.3,17.5
		c-1.9-5.6-3.7-11.2-5.6-16.8c18.1-3.2,36.1-6.7,54-10.7c2.9-0.7,6.2-1.6,7.6-4.2c1.4-2.6,0.4-5.9,0.8-8.8c0.9-6.2,7.8-9.5,14-10.4
		c6.2-0.9,12.8-0.6,18.1-3.9c2.8-1.8,5-4.4,7.5-6.7c5.3-4.8,12.3-7.7,19.4-8.2"/>
</g>
<g>
	
		<linearGradient id="SVGID_2_" gradientUnits="userSpaceOnUse" x1="29.6759" y1="72.8842" x2="136.4656" y2="72.8842" gradientTransform="matrix(-0.2426 -0.9701 0.9701 -0.2426 36.6553 167.9283)">
		<stop  offset="0" style="stop-color:#2484C6"/>
		<stop  offset="1" style="stop-color:#2484C6;stop-opacity:0"/>
	</linearGradient>
	<path class="st1" d="M40.9,100c0.2,6.9-9.6,10.2-15.6,6.7c-5.9-3.5-8.5-10.6-10.7-17.1c-1.7-5.1-3.4-10.7-1.9-15.9
		c1.5-5.2,7.8-9.3,12.4-6.6c3.3,1.9,4.8,6.6,8.5,7.7c1.8,0.5,3.8,0.1,5.6-0.4c8.8-2.3,17.7-4.6,26.5-7c-2.4-12.5,1-25.9,8.4-36.3
		c7.5-10.3,18.8-17.7,31.1-21c10.2-2.8,21.6-2.7,30.8,2.6c7,4,12,10.7,16,17.7c6.3,11.1,10.4,23.6,10.4,36.4
		c0,12.7-4.5,25.7-13.5,34.8C137.6,113,121,117,105.1,119.4c-4.6,0.7-9.4,1.3-13.9,0.3c-12.5-2.9-18.7-16.5-24.8-27.8
		c-0.7-1.3-1.5-2.6-2.9-3.1c-1.1-0.4-2.4-0.2-3.6,0.1c-4.4,1-8.9,2.1-13.3,3.1c-3.5,0.8-8,4.5-5.3,7"/>
</g>
</svg>
