<?xml version="1.0" encoding="utf-8"?>
<!-- Generator: Adobe Illustrator 22.1.0, SVG Export Plug-In . SVG Version: 6.00 Build 0)  -->
<svg version="1.1" id="Слой_1" xmlns="http://www.w3.org/2000/svg" xmlns:xlink="http://www.w3.org/1999/xlink" x="0px" y="0px"
	 viewBox="0 0 841.9 125.8" style="enable-background:new 0 0 841.9 125.8;" xml:space="preserve">
<style type="text/css">
	.st0{fill:url(#SVGID_1_);}
	.st1{fill:url(#SVGID_2_);}
	.st2{fill:url(#SVGID_3_);}
	.st3{fill:url(#SVGID_4_);}
	.st4{fill:url(#SVGID_5_);}
	.st5{fill:url(#SVGID_6_);}
</style>
<g>
	
		<linearGradient id="SVGID_1_" gradientUnits="userSpaceOnUse" x1="-95.4982" y1="118.286" x2="879.3029" y2="118.286" gradientTransform="matrix(0.9999 1.016890e-02 -1.016890e-02 0.9999 2.1916 -3.6979)">
		<stop  offset="0" style="stop-color:#ED2789"/>
		<stop  offset="0.5513" style="stop-color:#662752;stop-opacity:0.4487"/>
		<stop  offset="1" style="stop-color:#121028;stop-opacity:0"/>
	</linearGradient>
	<path class="st0" d="M-48.2,93.2c25.6-9,49.2-23.7,68.5-42.8c7.7-7.6,14.9-16,24.3-21.4s22-7,30.8-0.7
		c15.2,10.9,13.1,39.6,31.1,44.6c4.5,1.3,9.4,0.5,13.8-0.9c19.2-6.2,32.1-23.9,48.9-35.2s44.9-12.6,52.4,6.2
		c4.5,11.3,0.5,27.6,11.1,33.4c7.6,4.2,16.9-0.9,24.1-5.8c22.4-15.4,44.9-30.7,67.3-46.1c8.4-5.8,20-11.6,28.1-5.3
		c13.7,10.6-2,40.6,14.2,46.6c3.5,1.3,7.4,0.7,11-0.1c20.5-4.3,40-13.1,56.9-25.4c11.3-8.2,21.7-18.2,35-22.7
		c13.2-4.4,30.7-0.8,36.1,12.1c5.4,12.8-2.6,30.3,7.2,40.2c6.7,6.8,18.2,5.5,26.4,0.8c11.1-6.4,18.4-17.5,28-25.9
		c9.6-8.4,24.2-13.9,34.9-6.9c15.1,9.9,11.1,37,27.2,45.3c13,6.6,28-4.8,36.2-16.9s15.7-26.9,29.7-30.7c2.6-0.7,5.6-1,7.9,0.4
		c2.5,1.4,3.7,4.3,4.4,7.1c3.5,12.7,2.4,29.7,14.5,35.1c9.2,4.2,19.8-2.1,26.2-9.9s10.8-17.4,18.7-23.5s21.8-6.6,26.2,2.4
		c2.8,5.6,0.8,12.7,3.6,18.4c4.6,9.3,19.1,8.3,26.8,1.3c7.7-6.9,11.2-17.3,16.8-26s15.7-16.5,25.6-13.4
		c17.7,34.2,15.5,74.8,12.8,113.2c-1.5,20.8-3.6,43.2-17.4,58.8c-14.3,16.1-37.4,20.7-58.8,22.9c-100.1,10.4-200.5-9.6-300.9-16
		c-178.4-11.3-358.8,20.6-535.5-6.2c-11.7-1.8-23.7-3.9-34.1-9.7c-19.1-10.7-30-34.4-25.8-55.9c4.3-21.5,23.3-39.2,45.1-41.9"/>
</g>
<g>
	
		<linearGradient id="SVGID_2_" gradientUnits="userSpaceOnUse" x1="-83.5014" y1="122.8967" x2="891.2997" y2="122.8967" gradientTransform="matrix(0.9999 -1.701671e-02 1.701671e-02 0.9999 -0.9277 6.971)">
		<stop  offset="0" style="stop-color:#ED2789"/>
		<stop  offset="0.5513" style="stop-color:#662752;stop-opacity:0.4487"/>
		<stop  offset="1" style="stop-color:#121028;stop-opacity:0"/>
	</linearGradient>
	<path class="st1" d="M-36.6,109.7C-11.3,100,11.9,84.6,30.7,65c7.5-7.8,14.5-16.4,23.7-22.1s21.8-7.6,30.7-1.5
		c15.5,10.5,14.2,39.2,32.3,43.7c4.5,1.1,9.4,0.3,13.8-1.3c19.1-6.7,31.5-24.8,47.9-36.5s44.6-13.8,52.5,4.8
		c4.8,11.2,1.2,27.6,12,33.1c7.8,4,16.8-1.3,23.9-6.5c22-16,44-31.9,66.1-47.9c8.3-6,19.7-12.1,27.9-6c14,10.2-0.9,40.7,15.5,46.2
		c3.5,1.2,7.4,0.5,11-0.4c20.3-4.9,39.6-14.1,56.2-26.9c11-8.5,21.2-18.8,34.3-23.6c13.1-4.8,30.6-1.6,36.4,11.1
		c5.8,12.7-1.8,30.4,8.3,40c6.8,6.6,18.3,5,26.4,0.1c10.9-6.7,18-18,27.3-26.6c9.4-8.6,23.9-14.6,34.7-7.9
		c15.3,9.5,12.1,36.7,28.4,44.5c13.2,6.3,27.9-5.6,35.8-17.9c7.9-12.3,14.9-27.3,28.9-31.5c2.6-0.8,5.5-1.1,7.9,0.2
		c2.5,1.4,3.8,4.2,4.6,6.9c3.8,12.6,3.3,29.6,15.4,34.7c9.3,3.9,19.8-2.6,25.9-10.6c6.2-7.9,10.3-17.7,18.1-24s21.6-7.2,26.3,1.7
		c2.9,5.6,1.2,12.7,4.1,18.3c4.9,9.2,19.3,7.7,26.8,0.6c7.5-7.1,10.7-17.6,16.1-26.4s15.3-16.9,25.2-14.1
		c18.7,33.7,17.5,74.4,15.9,112.9c-0.9,20.8-2.4,43.3-15.8,59.3c-13.9,16.5-36.8,21.7-58.2,24.5c-99.8,13.1-200.7-4.2-301.2-7.8
		c-178.6-6.4-358.1,30.3-535.5,8.4c-11.8-1.5-23.8-3.3-34.3-8.8c-19.4-10.2-30.9-33.6-27.3-55.2c3.7-21.6,22.3-39.8,43.9-43.1"/>
</g>
<g>
	
		<linearGradient id="SVGID_3_" gradientUnits="userSpaceOnUse" x1="-67.698" y1="124.6988" x2="907.1031" y2="124.6988" gradientTransform="matrix(0.9999 -1.701671e-02 1.701671e-02 0.9999 -0.9277 6.971)">
		<stop  offset="0" style="stop-color:#ED2789"/>
		<stop  offset="0.5513" style="stop-color:#662752;stop-opacity:0.4487"/>
		<stop  offset="1" style="stop-color:#121028;stop-opacity:0"/>
	</linearGradient>
	<path class="st2" d="M-20.8,111.2c25.4-9.7,48.5-25.1,67.3-44.7C54,58.7,61,50.1,70.3,44.5S92,36.9,101,43
		c15.5,10.5,14.2,39.2,32.3,43.7c4.5,1.1,9.4,0.3,13.8-1.3c19.1-6.7,31.5-24.8,47.9-36.5s44.6-13.8,52.5,4.8
		c4.8,11.2,1.2,27.6,12,33.1c7.8,4,16.8-1.3,23.9-6.5c22-16,44-31.9,66.1-47.9c8.3-6,19.7-12.1,27.9-6c14,10.2-0.9,40.7,15.5,46.2
		c3.5,1.2,7.4,0.5,11-0.4c20.3-4.9,39.6-14.1,56.2-26.9c11-8.5,21.2-18.8,34.3-23.6c13.1-4.8,30.6-1.6,36.4,11.1
		c5.8,12.7-1.8,30.4,8.3,40c6.8,6.6,18.3,5,26.4,0.1c10.9-6.7,18-18,27.3-26.6s23.9-14.6,34.7-7.9C643,47.8,639.7,75,656,82.8
		c13.2,6.3,27.9-5.6,35.8-17.9s14.9-27.3,28.9-31.5c2.6-0.8,5.5-1.1,7.9,0.2c2.5,1.4,3.8,4.2,4.6,6.9c3.8,12.6,3.3,29.6,15.4,34.7
		c9.3,3.9,19.8-2.6,25.9-10.6s10.3-17.7,18.1-24s21.6-7.2,26.3,1.7c2.9,5.6,1.2,12.7,4.1,18.3c4.9,9.2,19.3,7.7,26.8,0.6
		s10.7-17.6,16.1-26.4c5.4-8.9,15.3-16.9,25.2-14.1c18.7,33.7,17.5,74.4,15.9,112.9c-0.9,20.8-2.4,43.3-15.8,59.3
		c-13.9,16.5-36.8,21.7-58.2,24.5c-99.8,13.1-200.7-4.2-301.2-7.8c-178.6-6.4-358.1,30.3-535.5,8.4c-11.8-1.5-23.8-3.3-34.3-8.8
		C-57.4,199-69,175.7-65.3,154.1c3.7-21.6,22.3-39.8,43.9-43.1"/>
</g>
<g>
	
		<linearGradient id="SVGID_4_" gradientUnits="userSpaceOnUse" x1="-68.5111" y1="143.9185" x2="906.29" y2="143.9185" gradientTransform="matrix(0.9999 -1.701671e-02 1.701671e-02 0.9999 -0.9277 6.971)">
		<stop  offset="0" style="stop-color:#ED2789"/>
		<stop  offset="0.5513" style="stop-color:#662752;stop-opacity:0.4487"/>
		<stop  offset="1" style="stop-color:#121028;stop-opacity:0"/>
	</linearGradient>
	<path class="st3" d="M-21.3,130.4c25.4-9.7,48.5-25.1,67.3-44.7c7.5-7.8,14.5-16.4,23.7-22.1s21.8-7.6,30.7-1.5
		c15.5,10.5,14.2,39.2,32.3,43.7c4.5,1.1,9.4,0.3,13.8-1.3c19.1-6.7,31.5-24.8,47.9-36.5s44.6-13.8,52.5,4.8
		c4.8,11.2,1.2,27.6,12,33.1c7.8,4,16.8-1.3,23.9-6.5c22-16,44-31.9,66.1-47.9c8.3-6,19.7-12.1,27.9-6c14,10.2-0.9,40.7,15.5,46.2
		c3.5,1.2,7.4,0.5,11-0.4c20.3-4.9,39.6-14.1,56.2-26.9c11-8.5,21.2-18.8,34.3-23.6c13.1-4.8,30.6-1.6,36.4,11.1
		c5.8,12.7-1.8,30.4,8.3,40c6.8,6.6,18.3,5,26.4,0.1c10.9-6.7,18-18,27.3-26.6s23.9-14.6,34.7-7.9c15.3,9.5,12.1,36.7,28.4,44.5
		c13.2,6.3,27.9-5.6,35.8-17.9c7.9-12.3,14.9-27.3,28.9-31.5c2.6-0.8,5.5-1.1,7.9,0.2c2.5,1.4,3.8,4.2,4.6,6.9
		c3.8,12.6,3.3,29.6,15.4,34.7c9.3,3.9,19.8-2.6,25.9-10.6s10.3-17.7,18.1-24s21.6-7.2,26.3,1.7c2.9,5.6,1.2,12.7,4.1,18.3
		c4.9,9.2,19.3,7.7,26.8,0.6c7.5-7.1,10.7-17.6,16.1-26.4c5.4-8.9,15.3-16.9,25.2-14.1c18.7,33.7,17.5,74.4,15.9,112.9
		c-0.9,20.8-2.4,43.3-15.8,59.3c-13.9,16.5-36.8,21.7-58.2,24.5c-99.8,13.1-200.7-4.2-301.2-7.8c-178.6-6.4-358.1,30.3-535.5,8.4
		c-11.8-1.5-23.8-3.3-34.3-8.8c-19.4-10.2-30.9-33.6-27.3-55.2c3.7-21.6,22.3-39.8,43.9-43.1"/>
</g>
<g>
	
		<linearGradient id="SVGID_5_" gradientUnits="userSpaceOnUse" x1="-68.786" y1="160.07" x2="906.0151" y2="160.07" gradientTransform="matrix(0.9999 -1.701671e-02 1.701671e-02 0.9999 -0.9277 6.971)">
		<stop  offset="0" style="stop-color:#ED2789"/>
		<stop  offset="0.5513" style="stop-color:#662752;stop-opacity:0.4487"/>
		<stop  offset="1" style="stop-color:#121028;stop-opacity:0"/>
	</linearGradient>
	<path class="st4" d="M-21.3,146.6c25.4-9.7,48.5-25.1,67.3-44.7c7.5-7.8,14.5-16.4,23.7-22.1c9.3-5.6,21.8-7.6,30.7-1.5
		c15.5,10.5,14.2,39.2,32.3,43.7c4.5,1.1,9.4,0.3,13.8-1.3c19.1-6.7,31.5-24.8,47.9-36.5s44.6-13.8,52.5,4.8
		c4.8,11.2,1.2,27.6,12,33.1c7.8,4,16.8-1.3,23.9-6.5c22-16,44-31.9,66.1-47.9c8.3-6,19.7-12.1,27.9-6c14,10.2-0.9,40.7,15.5,46.2
		c3.5,1.2,7.4,0.5,11-0.4c20.3-4.9,39.6-14.1,56.2-26.9c11-8.5,21.2-18.8,34.3-23.6c13.1-4.8,30.6-1.6,36.4,11.1
		c5.8,12.7-1.8,30.4,8.3,40c6.8,6.6,18.3,5,26.4,0.1c10.9-6.7,18-18,27.3-26.6s23.9-14.6,34.7-7.9c15.3,9.5,12.1,36.7,28.4,44.5
		c13.2,6.3,27.9-5.6,35.8-17.9c7.9-12.3,14.9-27.3,28.9-31.5c2.6-0.8,5.5-1.1,7.9,0.2c2.5,1.4,3.8,4.2,4.6,6.9
		c3.8,12.6,3.3,29.6,15.4,34.7c9.3,3.9,19.8-2.6,25.9-10.6s10.3-17.7,18.1-24s21.6-7.2,26.3,1.7c2.9,5.6,1.2,12.7,4.1,18.3
		c4.9,9.2,19.3,7.7,26.8,0.6c7.5-7.1,10.7-17.6,16.1-26.4c5.4-8.9,15.3-16.9,25.2-14.1c18.7,33.7,17.5,74.4,15.9,112.9
		c-0.9,20.8-2.4,43.3-15.8,59.3c-13.9,16.5-36.8,21.7-58.2,24.5c-99.8,13.1-200.7-4.2-301.2-7.8c-178.6-6.4-358.1,30.3-535.5,8.4
		c-11.8-1.5-23.8-3.3-34.3-8.8c-19.4-10.2-30.9-33.6-27.3-55.2c3.7-21.6,22.3-39.8,43.9-43.1"/>
</g>
<g>
	
		<linearGradient id="SVGID_6_" gradientUnits="userSpaceOnUse" x1="-100.6783" y1="171.5549" x2="874.1228" y2="171.5549" gradientTransform="matrix(0.9999 -1.701671e-02 1.701671e-02 0.9999 -0.9277 6.971)">
		<stop  offset="0" style="stop-color:#ED2789"/>
		<stop  offset="0.5513" style="stop-color:#662752;stop-opacity:0.4487"/>
		<stop  offset="1" style="stop-color:#121028;stop-opacity:0"/>
	</linearGradient>
	<path class="st5" d="M-53,158.6c25.4-9.7,48.5-25.1,67.3-44.7c7.5-7.8,14.5-16.4,23.7-22.1c9.3-5.6,21.8-7.6,30.7-1.5
		c15.5,10.5,14.2,39.2,32.3,43.7c4.5,1.1,9.4,0.3,13.8-1.3c19.1-6.7,31.5-24.8,47.9-36.5s44.6-13.8,52.5,4.8
		c4.8,11.2,1.2,27.6,12,33.1c7.8,4,16.8-1.3,23.9-6.5c22-16,44-31.9,66.1-47.9c8.3-6,19.7-12.1,27.9-6c14,10.2-0.9,40.7,15.5,46.2
		c3.5,1.2,7.4,0.5,11-0.4c20.3-4.9,39.6-14.1,56.2-26.9c11-8.5,21.2-18.8,34.3-23.6c13.1-4.8,30.6-1.6,36.4,11.1
		c5.8,12.7-1.8,30.4,8.3,40c6.8,6.6,18.3,5,26.4,0.1c10.9-6.7,18-18,27.3-26.6c9.4-8.6,23.9-14.6,34.7-7.9
		c15.3,9.5,12.1,36.7,28.4,44.5c13.2,6.3,27.9-5.6,35.8-17.9s14.9-27.3,28.9-31.5c2.6-0.8,5.5-1.1,7.9,0.2c2.5,1.4,3.8,4.2,4.6,6.9
		c3.8,12.6,3.3,29.6,15.4,34.7c9.3,3.9,19.8-2.6,25.9-10.6c6.2-7.9,10.3-17.7,18.1-24c7.8-6.3,21.6-7.2,26.3,1.7
		c2.9,5.6,1.2,12.7,4.1,18.3c4.9,9.2,19.3,7.7,26.8,0.6c7.5-7.1,10.7-17.6,16.1-26.4S849,65.4,859,68.2
		c18.7,33.7,17.5,74.4,15.9,112.9c-0.9,20.8-2.4,43.3-15.8,59.3c-13.9,16.5-36.8,21.7-58.2,24.5c-99.8,13.1-200.7-4.2-301.2-7.8
		c-178.6-6.4-358.1,30.3-535.5,8.4c-11.8-1.5-23.8-3.3-34.3-8.8c-19.4-10.2-30.9-33.6-27.3-55.2s22.3-39.8,43.9-43.1"/>
</g>
</svg>
