<?xml version="1.0" encoding="utf-8"?>
<!-- Generator: Adobe Illustrator 22.1.0, SVG Export Plug-In . SVG Version: 6.00 Build 0)  -->
<svg version="1.1" id="Слой_1" xmlns="http://www.w3.org/2000/svg" xmlns:xlink="http://www.w3.org/1999/xlink" x="0px" y="0px"
	 viewBox="0 0 841.9 677.5" style="enable-background:new 0 0 841.9 677.5;" xml:space="preserve">
<style type="text/css">
	.st0{fill:url(#SVGID_1_);}
	.st1{fill:#FFFFFF;}
	.st2{fill:#010101;}
</style>
<g>
	<linearGradient id="SVGID_1_" gradientUnits="userSpaceOnUse" x1="176.7176" y1="339.3121" x2="663.4862" y2="339.3121">
		<stop  offset="0" style="stop-color:#F16362"/>
		<stop  offset="5.812215e-02" style="stop-color:#E86265"/>
		<stop  offset="0.1548" style="stop-color:#D55F6E"/>
		<stop  offset="0.2782" style="stop-color:#B75B7C"/>
		<stop  offset="0.4228" style="stop-color:#8D568E"/>
		<stop  offset="0.5674" style="stop-color:#5752A3"/>
		<stop  offset="0.8652" style="stop-color:#C24C9C"/>
		<stop  offset="0.9944" style="stop-color:#90479B"/>
	</linearGradient>
	<path class="st0" d="M177.5,389.4c-2.9-40.1,20-77.9,42.2-113.3c28.1-44.8,56.2-89.6,85.6-133.9c8.9-13.5,20.3-28.3,38-30.5
		c22.5-2.8,39.8,15.7,55.1,30.3s42.7,27.1,58.8,13.2c15.7-13.5,3.6-38.3,15-54.7c9.6-13.8,33.2-15.8,49.6-8.2
		c16.4,7.6,26.9,22,35.4,36.2c31.2,52.5,45,111.5,71.1,166c12.3,25.7,27.5,50.8,33.2,78.3s0.2,58.6-23.4,77.4
		c-14.5,11.5-33.8,17.1-50,26.8c-16.1,9.7-29.7,26.9-23.3,43c9.7,11.5,19.5,23.8,21.2,37.9c1.7,14.1-8,30.3-24.3,32.4
		c-16,2-29.3-9.5-42.1-18.1c-12.8-8.6-33.7-13.9-43.2-2.6c19.8-40.7,22.2-87.6,6.6-129.7c-25.7,28.9-32.6,69.6-17.5,103.6
		c3.4,7.6,7.6,16.8,1.9,23.3c-3.7,4.2-10.2,5.5-16.2,6.5c-32.6,5.4-78.2,3.9-84.6-24.4c-1.4-5.9-0.5-12.2-2.6-18
		c-4.8-12.8-22.7-18.1-38.3-17.8c-15.5,0.3-31.1,4.2-46.4,2c-29.8-4.3-48.9-29.6-60.2-53.9c-11.3-24.3-19.6-51.2-42.3-68.5"/>
</g>
<g>
	<path class="st1" d="M320.1,152.9c7.3-2.6,12.8-9.1,20.1-11.7c11.5-4,23.7,2.6,34.1,9c-7.5,1.1-12.3,10.2-19.9,10
		c-9-0.3-14.2-13.7-23.1-12.4"/>
</g>
<g>
	<path class="st1" d="M487,130.3c5.7-2.7,11.5-5.5,17.2-8.2c2.7-1.3,5.5-2.6,8.4-2.3c3.8,0.3,6.8,3,10,5.1c6.3,4.1,14,5.9,21.4,5.1
		c-8.7-2-17,4.1-25,8.1c-8,3.9-20.2,4.5-23.6-3.8"/>
	<g>
		<path class="st1" d="M487.4,130.9c4.9-2.3,9.8-4.7,14.7-7c3.2-1.5,6.1-3.1,9.7-3.2c3.8-0.1,6.2,1.7,9.2,3.8
			c7,4.7,14.7,6.8,23.1,6.1c0.8-0.1,1.1-1.3,0.2-1.5c-9-1.5-16.3,3.5-24.1,7.4c-7.3,3.7-19.7,6.4-24.1-2.8c-0.4-0.9-1.7-0.1-1.3,0.8
			c3,6.3,9.9,7.6,16.3,6.7c11.6-1.7,20.5-12.6,32.7-10.5c0.1-0.5,0.1-1,0.2-1.5c-6.1,0.5-12-0.4-17.5-3c-4.1-2-7.6-5.7-12.1-6.8
			c-3.8-0.9-7.2,0.6-10.6,2.1c-5.8,2.7-11.5,5.5-17.2,8.2C485.8,130,486.5,131.3,487.4,130.9L487.4,130.9z"/>
	</g>
</g>
<g>
	<g>
		<path class="st1" d="M378.2,205.5c34.6-12.6,72.1-15.6,108.2-8.2c9.4,1.9,13.5-12.5,4-14.5c-38.7-7.9-79.1-5.3-116.2,8.2
			C365.2,194.3,369.1,208.8,378.2,205.5L378.2,205.5z"/>
	</g>
</g>
<g>
	<g>
		<path class="st2" d="M352.5,154c9.7,0,9.7-15,0-15C342.8,139,342.8,154,352.5,154L352.5,154z"/>
	</g>
</g>
<g>
	<g>
		<path class="st2" d="M511.3,137c11.6,0,11.6-18,0-18C499.8,119,499.7,137,511.3,137L511.3,137z"/>
	</g>
</g>
</svg>
