<?xml version="1.0" encoding="utf-8"?>
<!-- Generator: Adobe Illustrator 22.1.0, SVG Export Plug-In . SVG Version: 6.00 Build 0)  -->
<svg version="1.1" id="Слой_1" xmlns="http://www.w3.org/2000/svg" xmlns:xlink="http://www.w3.org/1999/xlink" x="0px" y="0px"
	 viewBox="0 0 166.9 163.7" style="enable-background:new 0 0 166.9 163.7;" xml:space="preserve">
<style type="text/css">
	.st0{fill:url(#SVGID_1_);}
	.st1{fill:url(#SVGID_2_);}
	.st2{fill:url(#SVGID_3_);}
</style>
<g>
	<linearGradient id="SVGID_1_" gradientUnits="userSpaceOnUse" x1="58.3145" y1="96.7944" x2="114.7634" y2="96.7944">
		<stop  offset="0" style="stop-color:#ED1D7F"/>
		<stop  offset="4.421121e-02" style="stop-color:#E25693"/>
		<stop  offset="8.917635e-02" style="stop-color:#D972A4"/>
		<stop  offset="0.1351" style="stop-color:#D284B2"/>
		<stop  offset="0.1819" style="stop-color:#CC90BC"/>
		<stop  offset="0.2298" style="stop-color:#C897C3"/>
		<stop  offset="0.2809" style="stop-color:#C799C6"/>
		<stop  offset="0.6685" style="stop-color:#EF437F"/>
		<stop  offset="0.8876" style="stop-color:#724D9F"/>
		<stop  offset="1" style="stop-color:#394DA1"/>
	</linearGradient>
	<path class="st0" d="M59.2,82.7c-1.6,12.2-1,24.6,1.8,36.6c0.2,1,0.5,2,1.3,2.7c1.1,0.9,2.6,0.7,3.9,0.5c4.6-0.4,9.1,0.8,13.7,1.3
		c10.8,1.2,22-1.7,30.9-7.9c1.4-1,2.8-2.1,3.5-3.7c0.5-1.3,0.5-2.8,0.4-4.2c-0.2-5.9-0.5-11.8-0.7-17.8c-0.2-5.6-0.6-11.6-4-16
		c-3.4-4.4-11.1-6-14.4-1.5c-1.4,1.8-1.9,4.4-3.9,5.5c-2.6,1.4-5.7-0.5-7.6-2.8s-3.6-5-6.4-5.7c-3.2-0.8-6.4,1.4-9,3.4
		c-2.9,2.3-5.8,4.5-8.6,6.8"/>
	<g>
		<linearGradient id="SVGID_2_" gradientUnits="userSpaceOnUse" x1="57.8145" y1="96.8219" x2="115.2634" y2="96.8219">
			<stop  offset="0" style="stop-color:#ED1D7F"/>
			<stop  offset="4.421121e-02" style="stop-color:#E25693"/>
			<stop  offset="8.917635e-02" style="stop-color:#D972A4"/>
			<stop  offset="0.1351" style="stop-color:#D284B2"/>
			<stop  offset="0.1819" style="stop-color:#CC90BC"/>
			<stop  offset="0.2298" style="stop-color:#C897C3"/>
			<stop  offset="0.2809" style="stop-color:#C799C6"/>
			<stop  offset="0.6685" style="stop-color:#EF437F"/>
			<stop  offset="0.8876" style="stop-color:#724D9F"/>
			<stop  offset="1" style="stop-color:#394DA1"/>
		</linearGradient>
		<path class="st1" d="M56.7,82.7c-1,8.6-1.2,17.2-0.1,25.7c0.6,4.8,0.4,14.9,6.2,16.5c3.5,0.9,7.7,0.1,11.3,0.6
			c3.8,0.6,7.6,1.2,11.5,1.1c7-0.1,13.9-1.8,20.1-4.8c5-2.4,10.9-5.5,11.4-11.6c0.7-8.1-0.1-17.2-1-25.3c-0.6-5.7-2.4-12-7.6-15.2
			c-3.9-2.4-9.3-3-13.1-0.2c-1.2,0.9-2,2-2.8,3.2c-0.3,0.5-0.5,1.4-1,1.8c-1.5,1.4-4.4,0.5-5.8-0.8c-2.4-2.1-3.6-5-6.9-6.1
			c-7.5-2.6-15.5,6.4-20.7,10.6c-2.5,2,1,5.5,3.5,3.5c3.5-2.7,7.1-6.2,10.9-8.4c5.2-2.9,7.5,2,10.7,5c3.4,3.1,8.3,4.1,11.5,0.4
			c2.4-2.8,2.8-6.6,7.6-6c4.2,0.5,6.6,3.8,7.8,7.6c2.3,7.4,1.5,16.2,1.8,23.8c0.2,4.6,0.3,7.8-3.9,10.6c-3.4,2.3-7.3,4-11.2,5.2
			c-7.9,2.3-15.2,1.7-23.3,0.6c-1.4-0.2-2.7-0.4-4.1-0.4c-0.9,0-4,0.5-4.8,0.1c-3-1.2-3.2-11.1-3.5-13.5c-0.8-8-0.6-16,0.3-23.9
			C62.1,79.5,57.1,79.5,56.7,82.7L56.7,82.7z"/>
	</g>
</g>
<g>
	<linearGradient id="SVGID_3_" gradientUnits="userSpaceOnUse" x1="45.2464" y1="78.9449" x2="126.0788" y2="78.9449">
		<stop  offset="0" style="stop-color:#2484C6"/>
		<stop  offset="1" style="stop-color:#2484C6;stop-opacity:0"/>
	</linearGradient>
	<path class="st2" d="M110.7,132.8c-0.5,2.5-3.9,3.1-6.5,3.1c-11.9,0.1-23.7,0.1-35.6,0.2c-5.8,0-12.2-0.2-16.4-4.2
		c-2.8-2.7-3.9-6.6-4.8-10.4c-3.5-15.8-3.1-32.5,1.2-48.2c2.6-9.5,8-19.8,17.6-22c2.2-0.5,4.7-0.6,6.2-2.2c3.3-3.4-0.3-9.9,2.8-13.4
		c-4.2-0.3-11-3.4-9.5-7.3c3.6-9.5,19.7-6.4,29.4-4.8c0.7,0.1,1.5,0.4,2,0.9c1.5,1.4,0.6,3.1-0.1,4.6c-2.6,5.3-3.6,11.4-2.9,17.3
		c0.2,1.5,0.5,3,1.3,4.3c1.1,1.7,3.1,2.7,4.9,3.6c7.3,3.5,15.1,7.5,18.7,14.8c1.7,3.4,2.2,7.3,2.7,11c1.6,12.4,2.9,24.9,4,37.3
		c0.2,2.6,0.4,5.3-1,7.5c-1.2,1.9-3.4,3-5.4,3.9c-4.3,2-8.6,4-12.8,5.9"/>
</g>
</svg>
