<?xml version="1.0" encoding="utf-8"?>
<!-- Generator: Adobe Illustrator 22.1.0, SVG Export Plug-In . SVG Version: 6.00 Build 0)  -->
<svg version="1.1" id="Слой_1" xmlns="http://www.w3.org/2000/svg" xmlns:xlink="http://www.w3.org/1999/xlink" x="0px" y="0px"
	 viewBox="0 0 166.9 163.7" style="enable-background:new 0 0 166.9 163.7;" xml:space="preserve">
<style type="text/css">
	.st0{fill:url(#SVGID_1_);}
	.st1{fill:url(#SVGID_2_);}
	.st2{fill:url(#SVGID_3_);}
</style>
<g>
	<linearGradient id="SVGID_1_" gradientUnits="userSpaceOnUse" x1="44.2758" y1="103.6628" x2="115.6713" y2="103.6628">
		<stop  offset="0" style="stop-color:#FFF33B"/>
		<stop  offset="5.948725e-02" style="stop-color:#FFE029"/>
		<stop  offset="0.1303" style="stop-color:#FFD218"/>
		<stop  offset="0.2032" style="stop-color:#FEC90F"/>
		<stop  offset="0.2809" style="stop-color:#FDC70C"/>
		<stop  offset="0.6685" style="stop-color:#F3903F"/>
		<stop  offset="0.8876" style="stop-color:#ED683C"/>
		<stop  offset="1" style="stop-color:#E93E3A"/>
	</linearGradient>
	<path class="st0" d="M58.9,127.4c-5.9,0.6-10.2-5.5-12.2-11.2c-2.3-6.6-3.3-13.9-1.8-20.7c1.6-6.8,6.1-13.2,12.5-16
		c3-1.3,6.8-1.7,9.4,0.3c1.6,1.2,2.6,3.2,4.4,3.8c2.4,0.8,4.8-0.9,6.5-2.8c1.7-1.9,3.3-4.1,5.7-4.7c4.9-1.2,8.9,4.8,13.9,4.7
		c0.9,0,1.9-0.2,2.8-0.2c4.1,0,7,4.2,7.8,8.2c0.8,4,0.4,8.3,1.8,12.1c1.7,4.6,5.8,8.5,5.7,13.4c-0.1,3.5-2.4,6.6-5.3,8.5
		c-2.9,1.9-6.3,2.8-9.7,3.7c-7.8,2.1-15.6,4.2-23.6,4.7s-16.4-0.8-23.2-5"/>
	<g>
		<linearGradient id="SVGID_2_" gradientUnits="userSpaceOnUse" x1="43.7758" y1="103.6783" x2="116.1713" y2="103.6783">
			<stop  offset="0" style="stop-color:#FFF33B"/>
			<stop  offset="5.948725e-02" style="stop-color:#FFE029"/>
			<stop  offset="0.1303" style="stop-color:#FFD218"/>
			<stop  offset="0.2032" style="stop-color:#FEC90F"/>
			<stop  offset="0.2809" style="stop-color:#FDC70C"/>
			<stop  offset="0.6685" style="stop-color:#F3903F"/>
			<stop  offset="0.8876" style="stop-color:#ED683C"/>
			<stop  offset="1" style="stop-color:#E93E3A"/>
		</linearGradient>
		<path class="st1" d="M58.9,124.9c-9.5,0.2-12.2-15.4-12.2-22.4c0-7.9,3.4-16.4,10.8-20.1c2.8-1.4,5.9-2,8.5,0.1
			c1.1,0.9,1.8,2.1,3,2.9c2,1.2,4.2,1.3,6.4,0.4c3.2-1.3,5.5-6.5,8.7-7.2c3.2-0.6,6.7,3,9.6,4.1c3.9,1.4,8.2-0.7,10.7,3.5
			c2.1,3.6,1.6,8.1,2.2,12c1.4,8,11.8,16.6,1.6,22.9c-4,2.5-9.2,3.3-13.7,4.5c-4.6,1.2-9.2,2.3-13.9,2.8c-8.9,1.1-17.8,0.2-25.7-4.3
			c-2.8-1.6-5.3,2.7-2.5,4.3c15.9,9.2,35.6,4.9,52.2-0.4c6.8-2.2,14.2-7,13.4-15.1c-0.3-3.4-2.3-6.3-4-9.2
			c-2.5-4.5-2.5-8.9-3.3-13.8c-0.5-3.3-1.7-6.6-4.1-8.9c-2.9-2.9-5.5-2.3-9.3-2.6c-3.6-0.2-6.3-3.4-9.7-4.4c-3-0.9-5.8-0.3-8.3,1.6
			c-1.6,1.2-2.6,3.2-4.3,4.3c-2.7,1.8-3.7,0.7-5.6-1c-2.4-2.2-5.3-3.2-8.6-2.8c-7,0.7-12.9,6.2-16,12.2c-4.3,8.3-3.9,18.1-1.2,26.9
			c2.2,7.1,6.8,14.8,15.1,14.7C62.2,129.8,62.2,124.8,58.9,124.9L58.9,124.9z"/>
	</g>
</g>
<g>
	<linearGradient id="SVGID_3_" gradientUnits="userSpaceOnUse" x1="35.6737" y1="84.6303" x2="129.7672" y2="84.6303">
		<stop  offset="0" style="stop-color:#2484C6"/>
		<stop  offset="1" style="stop-color:#2484C6;stop-opacity:0"/>
	</linearGradient>
	<path class="st2" d="M100.8,137.2c-9.6,1.9-19.3,3.8-29.1,3.4S52,136.9,45.1,130c-11.6-11.8-11.3-31.1-5.7-46.7
		c3.6-10,9.5-19.8,19-24.4c3.5-1.7,7.4-2.6,10.5-4.9S74,47.1,72,43.8c-1.8-2.9-5.8-3.5-8.9-4.8s-5.9-5.6-3.4-8c1-1,2.5-1.1,3.9-1.3
		c8.7-0.8,17.4-1.2,26.2-1c4.4,0.1,10.6,2.6,9,6.7c-0.9,2.3-3.7,3.1-5.7,4.6c-4.3,3.6-2.7,11,1.2,15s9.5,6.1,13.9,9.6
		c12.1,9.5,13.7,26.8,18.6,41.4c2.2,6.4,5,14,0.9,19.3c-1.4,1.8-3.4,3-5.4,4.2c-8.9,5.3-19,10.9-29.2,8.8"/>
</g>
</svg>
