<?xml version="1.0" encoding="utf-8"?>
<!-- Generator: Adobe Illustrator 22.1.0, SVG Export Plug-In . SVG Version: 6.00 Build 0)  -->
<svg version="1.1" id="Слой_1" xmlns="http://www.w3.org/2000/svg" xmlns:xlink="http://www.w3.org/1999/xlink" x="0px" y="0px"
	 viewBox="0 0 166.9 163.7" style="enable-background:new 0 0 166.9 163.7;" xml:space="preserve">
<style type="text/css">
	.st0{fill:url(#SVGID_1_);}
	.st1{fill:url(#SVGID_2_);}
	.st2{fill:url(#SVGID_3_);}
</style>
<g>
	<linearGradient id="SVGID_1_" gradientUnits="userSpaceOnUse" x1="48.5905" y1="94.1719" x2="107.155" y2="94.1719">
		<stop  offset="0" style="stop-color:#ED1D7F"/>
		<stop  offset="4.421121e-02" style="stop-color:#E25693"/>
		<stop  offset="8.917635e-02" style="stop-color:#D972A4"/>
		<stop  offset="0.1351" style="stop-color:#D284B2"/>
		<stop  offset="0.1819" style="stop-color:#CC90BC"/>
		<stop  offset="0.2298" style="stop-color:#C897C3"/>
		<stop  offset="0.2809" style="stop-color:#C799C6"/>
		<stop  offset="0.6685" style="stop-color:#EF437F"/>
		<stop  offset="0.8876" style="stop-color:#724D9F"/>
		<stop  offset="1" style="stop-color:#394DA1"/>
	</linearGradient>
	<path class="st0" d="M78.8,120.2c-2.2,1.9-5.4-0.5-7.3-2.8c-3.9-4.6-7.8-9.3-11.6-13.9c-3.2-3.9-6.5-7.8-9.1-12.1
		c-1.1-1.7-2-3.6-2.1-5.6c-0.1-1.7,0.5-3.4,1.2-4.9c1.4-3.6,3.3-7.3,6.4-9.6c3.1-2.3,7.9-2.9,10.8-0.3c1.9,1.7,2.7,4.4,4.7,6.1
		c3.2,2.7,8.9,1.1,10.3-2.9c0.4-1.2,0.4-2.5,0.9-3.6c0.7-1.7,2.3-2.9,4.1-3.1c3.6-0.5,6.5,2.8,9.1,5.3c2.7,2.5,7.2,4.4,9.6,1.7
		c3.5,9.5,0.3,20-3,29.6c-1,2.9-2,5.8-3.7,8.3c-4.8,6.9-14.1,9.2-22.5,8.5"/>
	<g>
		<linearGradient id="SVGID_2_" gradientUnits="userSpaceOnUse" x1="48.0905" y1="94.1567" x2="107.655" y2="94.1567">
			<stop  offset="0" style="stop-color:#ED1D7F"/>
			<stop  offset="4.421121e-02" style="stop-color:#E25693"/>
			<stop  offset="8.917635e-02" style="stop-color:#D972A4"/>
			<stop  offset="0.1351" style="stop-color:#D284B2"/>
			<stop  offset="0.1819" style="stop-color:#CC90BC"/>
			<stop  offset="0.2298" style="stop-color:#C897C3"/>
			<stop  offset="0.2809" style="stop-color:#C799C6"/>
			<stop  offset="0.6685" style="stop-color:#EF437F"/>
			<stop  offset="0.8876" style="stop-color:#724D9F"/>
			<stop  offset="1" style="stop-color:#394DA1"/>
		</linearGradient>
		<path class="st1" d="M77.5,118c-3,1.7-10.8-10.1-12.4-12.1c-3.9-4.7-8-9.2-11.3-14.3c-2-3.1-3-5.6-1.9-9.3
			c0.8-2.6,2.5-5.9,4.4-7.8c2.7-2.7,6.4-3.8,9.3-1c1.7,1.7,2.5,4,4.4,5.5c2.4,1.9,5.7,2.3,8.5,1.4c3.6-1.2,4.4-3.6,5.9-6.7
			c3.9-7.7,9.3,1.6,13.8,3.6c3.3,1.5,6.3,1.2,9.1-1.1c-1.4-0.4-2.8-0.7-4.2-1.1c3.4,10.3-0.2,21.5-4,31.2
			c-3.8,9.7-13,12.7-22.8,12.2c-3.2-0.2-3.2,4.8,0,5c10.3,0.6,21.3-2.6,26.2-12.4c5.4-10.8,9.4-25.4,5.5-37.2
			c-0.6-1.9-2.7-2.3-4.2-1.1c-3.2,2.6-7.6-3.3-9.8-5c-1.7-1.4-3.7-2.5-5.9-2.7c-5.3-0.4-6.9,3.4-8.4,7.4c-0.9,2.3-2.2,4-5,3.4
			c-2.2-0.5-3-2.6-4.2-4.2c-1.4-1.9-2.9-3.4-5.1-4.2c-4.5-1.6-9.5,0.4-12.7,3.6c-3.4,3.5-6.8,9.8-6.7,14.8
			c0.1,5.6,4.9,10.8,8.2,14.9c4.6,5.8,9.4,11.4,14.2,17.1c3,3.5,6.8,7.2,11.5,4.5C82.9,120.8,80.3,116.5,77.5,118L77.5,118z"/>
	</g>
</g>
<g>
	<linearGradient id="SVGID_3_" gradientUnits="userSpaceOnUse" x1="41.9672" y1="78.665" x2="125.2024" y2="78.665">
		<stop  offset="0" style="stop-color:#2484C6"/>
		<stop  offset="1" style="stop-color:#2484C6;stop-opacity:0"/>
	</linearGradient>
	<path class="st2" d="M92.4,129.6c-14.4,2.8-30-3.4-39.4-14.7s-12.8-27-10.1-41.5c1.7-9,6.5-18.3,15-21.5c3-1.1,6.5-1.5,8.8-3.8
		c4.5-4.2,1.9-12.2-2.7-16.3c-0.6-0.5-1.3-1.2-1.2-1.9c0.1-1.1,1.4-1.5,2.5-1.7c7.6-1.1,15.3-1.4,23-1c1.4,0.1,2.9,0.3,3.8,1.3
		c2.5,2.9-2.5,6.2-4.3,9.6c-1.9,3.7,0.6,8.2,4,10.5c3.4,2.3,7.6,3.1,11.3,4.9c13.1,6.2,17.8,22.1,21.1,36.2c0.6,2.5,1.2,5.1,0.7,7.7
		c-0.6,3.1-2.8,5.6-4.8,7.9c-8,9.2-16.4,18.6-27.5,23.5"/>
</g>
</svg>
