<?xml version="1.0" encoding="utf-8"?>
<!-- Generator: Adobe Illustrator 22.1.0, SVG Export Plug-In . SVG Version: 6.00 Build 0)  -->
<svg version="1.1" id="Слой_1" xmlns="http://www.w3.org/2000/svg" xmlns:xlink="http://www.w3.org/1999/xlink" x="0px" y="0px"
	 viewBox="0 0 166.9 163.7" style="enable-background:new 0 0 166.9 163.7;" xml:space="preserve">
<style type="text/css">
	.st0{fill:url(#SVGID_1_);}
	.st1{fill:url(#SVGID_2_);}
	.st2{fill:#FFFFFF;}
</style>
<g>
	<linearGradient id="SVGID_1_" gradientUnits="userSpaceOnUse" x1="25.7708" y1="76.2043" x2="146.6815" y2="76.2043">
		<stop  offset="0" style="stop-color:#ED1D7F"/>
		<stop  offset="4.421121e-02" style="stop-color:#E25693"/>
		<stop  offset="8.917635e-02" style="stop-color:#D972A4"/>
		<stop  offset="0.1351" style="stop-color:#D284B2"/>
		<stop  offset="0.1819" style="stop-color:#CC90BC"/>
		<stop  offset="0.2298" style="stop-color:#C897C3"/>
		<stop  offset="0.2809" style="stop-color:#C799C6"/>
		<stop  offset="0.6685" style="stop-color:#EF437F"/>
		<stop  offset="0.8876" style="stop-color:#724D9F"/>
		<stop  offset="1" style="stop-color:#394DA1"/>
	</linearGradient>
	<path class="st0" d="M121.8,137.8c-9.6,5.3-21.8,6.6-31.7,1.9s-16.7-16.1-14.7-26.9c-5.7,2.7-11.5,5.4-17.8,5.8
		c-6.3,0.4-13.1-1.9-16.2-7.4c-3.1-5.4-0.7-13.8,5.4-15.3c3.4-0.8,7.8,0.3,9.9-2.5c1-1.3,1.1-3,1.2-4.6c0.4-7.3,0.7-14.6,1.1-21.9
		c-6.2,4.8-15.2,5.8-22.2,2.3c-7-3.5-11.6-11.5-10.9-19.3c0.5-5.3,4.7-10.9,9.9-10.3c-3.7,0-6.4-4.1-6.1-7.8
		c0.3-3.7,2.8-6.8,5.7-9.2c5.7-4.8,13.2-7.6,20.7-7.6c3.9,0,7.8,0.7,11.6,0.1c3.7-0.6,7-2.3,10.6-3.4c12.2-4,25.5-1,38,2
		c7.9,1.9,16.1,3.9,22.4,9s10.2,14.2,6.8,21.6c-2.8,6-9.2,9.1-15.3,11.6c-11.8,4.9-24,9-36.3,12.4c-4.8,1.3-9.8,2.6-13.4,6.1
		c-3.6,3.4-4.8,9.8-1.3,13.3c4.2,4.1,12.4,2.1,15.6,7c3.3,5.1-2.3,11.2-7.3,14.6c1.9,4.7,4,9.6,7.8,13c3.8,3.4,10,4.7,14,1.5
		c3-2.4,4-6.4,5.7-9.8s5.4-6.7,9-5.3c2.3,0.9,3.5,3.3,4.4,5.6c1.8,4.6,3.1,9.6,2.1,14.5c-1,4.9-4.8,9.4-9.7,9.9"/>
	<g>
		<linearGradient id="SVGID_2_" gradientUnits="userSpaceOnUse" x1="25.2708" y1="76.1872" x2="147.1815" y2="76.1872">
			<stop  offset="0" style="stop-color:#ED1D7F"/>
			<stop  offset="4.421121e-02" style="stop-color:#E25693"/>
			<stop  offset="8.917635e-02" style="stop-color:#D972A4"/>
			<stop  offset="0.1351" style="stop-color:#D284B2"/>
			<stop  offset="0.1819" style="stop-color:#CC90BC"/>
			<stop  offset="0.2298" style="stop-color:#C897C3"/>
			<stop  offset="0.2809" style="stop-color:#C799C6"/>
			<stop  offset="0.6685" style="stop-color:#EF437F"/>
			<stop  offset="0.8876" style="stop-color:#724D9F"/>
			<stop  offset="1" style="stop-color:#394DA1"/>
		</linearGradient>
		<path class="st1" d="M120.5,135.7c-9.3,4.9-20.9,6.4-30.5,1.2c-8.3-4.5-13.7-14-12.3-23.5c0.3-2.2-1.6-3.8-3.7-2.8
			c-7.3,3.4-15.7,7.4-23.9,4.6c-6.3-2.2-12.2-12.8-3.5-16.5c4.8-2,11,0.5,13.1-6c1.2-3.6,0.7-8.1,0.9-11.8c0.2-4.7,0.4-9.3,0.7-14
			c0.1-1.8-2.2-3.2-3.8-2.2c-7.2,5.1-17.3,5.8-24-0.7c-3-2.9-5.1-7-5.4-11.2C28,48.2,30.2,42,35.8,42.2c3.3,0.1,3.1-4.6,0-5
			c-4.3-0.6-3.9-5.9-2.4-8.5c1.1-2,3-3.7,4.8-5.1c3.9-3,8.5-4.9,13.4-5.7c4.7-0.7,9.4,0.2,14.1-0.1c3.9-0.2,7.3-1.6,10.9-2.9
			c9.8-3.6,19.8-2.9,29.9-0.8c8.5,1.7,17.7,3.4,25.4,7.4c7.6,3.9,15.3,12.9,11.1,21.9c-3.7,8-15.1,10.9-22.6,13.7
			c-9,3.4-18.1,6.3-27.4,8.9c-6.1,1.7-13.1,3.6-16.6,9.4c-3.4,5.6-2.5,13,3.7,16.1c2.9,1.5,6.2,1.4,9.3,2.6c7.8,3,0.5,10.3-3.4,13.2
			c-0.8,0.6-1.6,1.7-1.1,2.8c2.3,5.6,4.8,11.8,10,15.4c4.6,3.1,11.1,4,15.7,0.5c2.4-1.8,3.7-4.5,4.9-7.2c1.7-3.8,6.4-11.4,10-4.4
			c3.6,7.1,5,20.3-5.4,22.2c-3.2,0.6-1.8,5.4,1.3,4.8c6.8-1.2,11.2-7.3,11.8-14c0.5-6.1-1.5-17.1-7.5-20.4
			c-6.9-3.7-12.1,3.8-14.4,9.2c-2.4,5.4-6.6,9-12.5,5.7c-4.8-2.6-7-8.4-8.9-13.1c-0.4,0.9-0.8,1.9-1.1,2.8c5.4-3.9,13-11.5,7.8-18.6
			c-1.9-2.6-4.9-3.6-7.9-4.3c-2-0.5-4.6-0.6-6.3-1.7c-3.2-2.1-3.3-5.9-1.4-9c3.1-5,10.2-6.1,15.4-7.6c6.2-1.7,12.3-3.6,18.3-5.7
			c9.2-3.2,20.2-6.2,27.8-12.5c6.4-5.3,8.3-13.5,5.1-21.2c-3.6-8.8-11.8-13.8-20.5-16.7c-10.4-3.5-21.8-6.1-32.8-6.7
			C89,7.1,83.5,7.5,78.4,9c-2.3,0.7-4.6,1.7-6.9,2.5c-3.9,1.3-7.5,1.4-11.6,1.2c-10.7-0.5-22,2.4-29.1,11c-5.3,6.4-4.7,17.2,5,18.5
			c0-1.7,0-3.3,0-5c-13.8-0.5-14.5,18-8.8,26.5c7.4,11.2,22.6,12.9,33.2,5.4c-1.3-0.7-2.5-1.4-3.8-2.2c-0.3,6-0.6,12-0.9,17.9
			c-0.2,3.4-0.5,7.9-4.7,8.2c-1.8,0.1-3.6,0.1-5.3,0.7c-6,1.8-8.9,8.7-7.9,14.5c1.2,6.8,7.4,11.2,13.8,12.4
			c8.8,1.7,17.3-2.1,25.1-5.8c-1.2-0.9-2.4-1.9-3.7-2.8c-1.7,11.2,3.7,22.4,13.4,28.4c11.2,7,25.5,5.5,36.7-0.5
			C125.9,138.5,123.4,134.2,120.5,135.7L120.5,135.7z"/>
	</g>
</g>
<g>
	<g>
		<path class="st2" d="M65.3,60.7c3.2,0,3.2-5,0-5C62.1,55.7,62,60.7,65.3,60.7L65.3,60.7z"/>
	</g>
</g>
<g>
	<g>
		<path class="st2" d="M39.9,49.6c3.2,0,3.2-5,0-5C36.7,44.6,36.7,49.6,39.9,49.6L39.9,49.6z"/>
	</g>
</g>
<g>
	<g>
		<path class="st2" d="M49.4,32.9c3.2,0,3.2-5,0-5C46.2,27.9,46.2,32.9,49.4,32.9L49.4,32.9z"/>
	</g>
</g>
<g>
	<g>
		<path class="st2" d="M124,47.2c3.2,0,3.2-5,0-5C120.8,42.2,120.8,47.2,124,47.2L124,47.2z"/>
	</g>
</g>
<g>
	<g>
		<path class="st2" d="M102.6,44c3.2,0,3.2-5,0-5C99.4,39,99.3,44,102.6,44L102.6,44z"/>
	</g>
</g>
<g>
	<g>
		<path class="st2" d="M95.4,60.7c3.2,0,3.2-5,0-5C92.2,55.7,92.2,60.7,95.4,60.7L95.4,60.7z"/>
	</g>
</g>
<g>
	<g>
		<path class="st2" d="M89.9,37.7c3.2,0,3.2-5,0-5C86.7,32.7,86.7,37.7,89.9,37.7L89.9,37.7z"/>
	</g>
</g>
<g>
	<g>
		<path class="st2" d="M101.8,24.2c3.2,0,3.2-5,0-5C98.6,19.2,98.6,24.2,101.8,24.2L101.8,24.2z"/>
	</g>
</g>
<g>
	<g>
		<path class="st2" d="M132.7,28.2c3.2,0,3.2-5,0-5C129.5,23.2,129.5,28.2,132.7,28.2L132.7,28.2z"/>
	</g>
</g>
<g>
	<g>
		<path class="st2" d="M69.2,43.2c3.2,0,3.2-5,0-5C66,38.2,66,43.2,69.2,43.2L69.2,43.2z"/>
	</g>
</g>
<g>
	<g>
		<path class="st2" d="M71.6,27.4c3.2,0,3.2-5,0-5C68.4,22.4,68.4,27.4,71.6,27.4L71.6,27.4z"/>
	</g>
</g>
</svg>
