<?xml version="1.0" encoding="utf-8"?>
<!-- Generator: Adobe Illustrator 22.1.0, SVG Export Plug-In . SVG Version: 6.00 Build 0)  -->
<svg version="1.1" id="Слой_1" xmlns="http://www.w3.org/2000/svg" xmlns:xlink="http://www.w3.org/1999/xlink" x="0px" y="0px"
	 viewBox="0 0 166.9 163.7" style="enable-background:new 0 0 166.9 163.7;" xml:space="preserve">
<style type="text/css">
	.st0{fill:url(#SVGID_1_);}
	.st1{fill:url(#SVGID_2_);}
	.st2{fill:url(#SVGID_3_);}
	.st3{fill:url(#SVGID_4_);}
	.st4{fill:url(#SVGID_5_);}
	.st5{fill:url(#SVGID_6_);}
</style>
<g>
	<linearGradient id="SVGID_1_" gradientUnits="userSpaceOnUse" x1="38.0988" y1="59.9297" x2="105.032" y2="59.9297">
		<stop  offset="0" style="stop-color:#FFF33B"/>
		<stop  offset="5.948725e-02" style="stop-color:#FFE029"/>
		<stop  offset="0.1303" style="stop-color:#FFD218"/>
		<stop  offset="0.2032" style="stop-color:#FEC90F"/>
		<stop  offset="0.2809" style="stop-color:#FDC70C"/>
		<stop  offset="0.6685" style="stop-color:#F3903F"/>
		<stop  offset="0.8876" style="stop-color:#ED683C"/>
		<stop  offset="1" style="stop-color:#E93E3A"/>
	</linearGradient>
	<path class="st0" d="M38.9,73.3c-0.2-2.8-0.5-5.6-0.7-8.4c-0.1-0.9-0.1-2,0.3-2.8c0.5-0.9,1.6-1.3,2.6-1.6
		c4.8-1.4,10.1-1.2,14.8,0.7C59.3,48,71.3,37.5,84.8,35.9c3.6,7.5-1.2,16.1-5.7,23c4.4-5.2,10.4-8.9,16.9-10.7
		c2.7-0.7,6-0.9,7.9,1.1c2.1,2.3,1.2,6.1-1,8.4c-2.1,2.2-5.1,3.4-7.8,5c-2.7,1.6-5.2,4-5.4,7.1c4.6-0.2,9.2,2.8,10.9,7.1
		c0.2,0.5,0.4,1.1,0.2,1.6c-0.2,0.7-0.9,1.1-1.5,1.4c-9,4.5-19.5,5-29.4,3.2c-9.9-1.8-19.2-5.7-28.4-9.6"/>
	<g>
		<linearGradient id="SVGID_2_" gradientUnits="userSpaceOnUse" x1="37.5988" y1="59.9468" x2="105.532" y2="59.9468">
			<stop  offset="0" style="stop-color:#FFF33B"/>
			<stop  offset="5.948725e-02" style="stop-color:#FFE029"/>
			<stop  offset="0.1303" style="stop-color:#FFD218"/>
			<stop  offset="0.2032" style="stop-color:#FEC90F"/>
			<stop  offset="0.2809" style="stop-color:#FDC70C"/>
			<stop  offset="0.6685" style="stop-color:#F3903F"/>
			<stop  offset="0.8876" style="stop-color:#ED683C"/>
			<stop  offset="1" style="stop-color:#E93E3A"/>
		</linearGradient>
		<path class="st1" d="M41.4,73.3c-0.3-3.3-1.9-8.8,1.2-10.6c3.3-1.9,9.5-0.2,12.7,0.9c1.3,0.4,2.7-0.5,3.1-1.7
			c3.5-12.6,14.1-21.7,27.1-23.5c-1-0.6-2.1-1.2-3.1-1.7c3.1,7.6-1.4,14.8-5.5,21.1c-1.5,2.4,2,5.2,3.9,3c3-3.4,6.5-6.2,10.6-8.1
			c1.6-0.8,3.5-1.5,5.3-1.9c1.4-0.4,2.8-0.5,4.3-0.3c2,1.9,2,3.7,0.2,5.5C96.7,61.1,88.7,61,87.3,69c-0.3,1.6,0.7,3.1,2.4,3.2
			c2.8,0.1,6.1,1.2,7.5,3.8c1.6,2.8-2.4,3.2-4.8,3.9c-5.1,1.5-10.5,1.9-15.9,1.5c-11.8-0.8-23-5.5-33.8-10.1c-2.9-1.3-5.5,3-2.5,4.3
			C56,82.4,73,89.1,90.5,85.5c4-0.8,13.7-2.6,12.7-8.5c-1-6.1-8-9.6-13.5-9.8c0.8,1.1,1.6,2.1,2.4,3.2c1.2-6.4,9.9-7.1,13.4-12
			c2.4-3.3,3-8.3-0.4-11.3c-8.1-6.9-22.6,4.1-27.9,10c1.3,1,2.6,2,3.9,3c4.8-7.3,9.6-16.1,6-24.9c-0.6-1.4-1.6-2-3.1-1.7
			c-14.6,2.1-26.6,12.9-30.5,27c1-0.6,2.1-1.2,3.1-1.7c-5.3-1.8-12.6-2.8-17.8-0.1c-5.2,2.7-2.9,10-2.5,14.6
			C36.7,76.5,41.7,76.5,41.4,73.3L41.4,73.3z"/>
	</g>
</g>
<g>
	<linearGradient id="SVGID_3_" gradientUnits="userSpaceOnUse" x1="21.6442" y1="120.0597" x2="70.294" y2="120.0597">
		<stop  offset="0" style="stop-color:#FFF33B"/>
		<stop  offset="5.948725e-02" style="stop-color:#FFE029"/>
		<stop  offset="0.1303" style="stop-color:#FFD218"/>
		<stop  offset="0.2032" style="stop-color:#FEC90F"/>
		<stop  offset="0.2809" style="stop-color:#FDC70C"/>
		<stop  offset="0.6685" style="stop-color:#F3903F"/>
		<stop  offset="0.8876" style="stop-color:#ED683C"/>
		<stop  offset="1" style="stop-color:#E93E3A"/>
	</linearGradient>
	<path class="st2" d="M69.3,105.1c0.9-0.8,0.7-2.3,0-3.3c-0.8-0.9-1.9-1.4-3.1-1.8c-2.8-1-5.9-1.8-8.9-1.2c-3,0.6-5.7,2.8-6.1,5.8
		c-5.9-2.4-11.8-4.9-18.1-5.9c-2.5-0.4-5.2-0.5-7.6,0.5c-2.4,1-4.2,3.5-3.8,6.1c0.5,2.8,3.4,4.5,6.2,5.2c2.8,0.7,5.8,0.7,8.2,2.1
		c-3.7,2.2-7,5-9.8,8.2c-0.4,0.5-0.8,1-0.8,1.6c0,1,1.2,1.6,2.2,1.9c5.1,1.3,10.5,1.6,15.7,0.8c-1.5,3.2-5.4,5.1-6.2,8.6
		c-0.8,3.4,2.1,7,5.5,7.7c3.4,0.7,7-0.8,9.6-3.1c2.6-2.4,4.4-5.5,6.1-8.5c3.9-6.9,7.8-13.8,11.8-20.7"/>
	<g>
		<linearGradient id="SVGID_4_" gradientUnits="userSpaceOnUse" x1="21.1442" y1="119.9325" x2="70.7285" y2="119.9325">
			<stop  offset="0" style="stop-color:#FFF33B"/>
			<stop  offset="5.948725e-02" style="stop-color:#FFE029"/>
			<stop  offset="0.1303" style="stop-color:#FFD218"/>
			<stop  offset="0.2032" style="stop-color:#FEC90F"/>
			<stop  offset="0.2809" style="stop-color:#FDC70C"/>
			<stop  offset="0.6685" style="stop-color:#F3903F"/>
			<stop  offset="0.8876" style="stop-color:#ED683C"/>
			<stop  offset="1" style="stop-color:#E93E3A"/>
		</linearGradient>
		<path class="st3" d="M71.4,106.4c5.6-9.9-19.4-15.2-22.6-2.4c1-0.6,2.1-1.2,3.1-1.7c-7.8-3.2-23.6-11.1-30.7-2.8
			c-2.3,2.7-2.8,6.6-0.5,9.5c3.5,4.6,9.5,3.7,14.2,5.8c0-1.4,0-2.9,0-4.3c-3.5,2.2-14.2,8.5-11.2,13.8c3.1,5.4,15.6,3.9,20.6,3.2
			c-0.9-1.2-1.9-2.4-2.8-3.7c-2.8,4.8-8.7,7.9-6,14.3c1.8,4.3,6.5,6.5,11,5.8c5.9-0.9,9.8-5.5,12.8-10.3c4.7-7.6,8.9-15.5,13.3-23.3
			c1.6-2.8-2.7-5.3-4.3-2.5c-4.6,8.1-8.9,16.8-14.1,24.6c-2.4,3.5-8.3,9.8-13,5.4c-4-3.7,2.8-8.3,4.6-11.5c1.2-2.1-0.8-4-2.8-3.7
			c-1.1,0.1-14.3,1-14.4-0.8c0-0.1,2.9-2.7,3-2.7c1.8-1.7,3.8-3.1,6-4.4c1.5-0.9,1.8-3.5,0-4.3c-2.9-1.3-5.8-1.5-8.8-2.4
			c-2.3-0.7-2.8-0.8-3.1-3.4c-1-2-0.2-3.2,2.2-3.5c1.1-0.2,2.1-0.3,3.2-0.2c6.8,0.3,13.6,3.5,19.8,6c1.2,0.5,2.8-0.6,3.1-1.7
			c0.9-3.5,3.8-4.2,7-4.1c0.6,0,7.3,1.2,6.5,2.6C65.5,106.6,69.9,109.2,71.4,106.4L71.4,106.4z"/>
	</g>
</g>
<g>
	<linearGradient id="SVGID_5_" gradientUnits="userSpaceOnUse" x1="81.7535" y1="108.4421" x2="143.8068" y2="108.4421">
		<stop  offset="0" style="stop-color:#FFF33B"/>
		<stop  offset="5.948725e-02" style="stop-color:#FFE029"/>
		<stop  offset="0.1303" style="stop-color:#FFD218"/>
		<stop  offset="0.2032" style="stop-color:#FEC90F"/>
		<stop  offset="0.2809" style="stop-color:#FDC70C"/>
		<stop  offset="0.6685" style="stop-color:#F3903F"/>
		<stop  offset="0.8876" style="stop-color:#ED683C"/>
		<stop  offset="1" style="stop-color:#E93E3A"/>
	</linearGradient>
	<path class="st4" d="M85.5,118.2c-1.3-2.1-0.8-5,0.7-6.9s3.9-3,6.3-3.6c3.6-1,8.6-0.3,9.4,3.3c0.6-9.8,6.6-19,15.3-23.6
		c1.8,5.8,1.8,12.2-0.1,18c3.8-2.4,7.7-4.5,11.8-6.4c1.4-0.7,3-1.3,4.6-1.1s3.1,1.5,3,3.1c-0.1,0.8-0.5,1.5-0.9,2.1
		c-2,3.1-3.9,6.1-5.9,9.2c3.3,3.6,10.8-0.7,13.5,3.4c1.1,1.7,0.6,4.1-0.8,5.7s-3.3,2.4-5.3,3.1c-16.3,6-34.5,6.7-51.2,2
		c-1.2-0.3-2.4-0.7-3.2-1.6c-1.9-2.1-0.5-5.4,0.9-7.8"/>
	<g>
		<linearGradient id="SVGID_6_" gradientUnits="userSpaceOnUse" x1="81.2535" y1="108.4373" x2="144.3068" y2="108.4373">
			<stop  offset="0" style="stop-color:#FFF33B"/>
			<stop  offset="5.948725e-02" style="stop-color:#FFE029"/>
			<stop  offset="0.1303" style="stop-color:#FFD218"/>
			<stop  offset="0.2032" style="stop-color:#FEC90F"/>
			<stop  offset="0.2809" style="stop-color:#FDC70C"/>
			<stop  offset="0.6685" style="stop-color:#F3903F"/>
			<stop  offset="0.8876" style="stop-color:#ED683C"/>
			<stop  offset="1" style="stop-color:#E93E3A"/>
		</linearGradient>
		<path class="st5" d="M87.7,117c-2.5-5.6,10.1-10.3,11.9-5.3c1,2.7,4.7,2.2,4.9-0.7c0.8-9.2,6-17,14-21.4c-1.2-0.5-2.4-1-3.7-1.5
			c1.6,5.6,1.5,11-0.1,16.6c-0.6,2.1,1.8,4,3.7,2.8c3.3-2,7.3-5,11.1-6c4.8-1.3,3.8,0.6,2,3.3c-1.3,2-2.6,4.1-3.9,6.1
			c-0.6,0.9-0.4,2.3,0.4,3c3.5,3,6.5,1.3,10.5,2.2c6.5,1.5-1.8,5.7-4.6,6.6c-3.1,1-6.3,1.9-9.5,2.5c-6.8,1.4-13.8,1.8-20.8,1.4
			c-3.4-0.2-6.7-0.6-10-1.2c-3.7-0.7-11.1-1.3-7.8-7.4c1.5-2.8-2.8-5.4-4.3-2.5c-1.6,3-3.1,6.6-1.2,9.7c2,3.4,6.8,3.9,10.3,4.6
			c10.7,2.2,21.8,2.4,32.6,0.6c6.7-1.1,21.5-3,23.1-11.5c0.5-2.8-0.6-5.7-3.2-7.1c-3.4-1.8-8.6,0.7-11.4-1.7c0.1,1,0.3,2,0.4,3
			c2.7-4.2,11.1-12.8,4.5-17.1c-5.8-3.8-15.8,3.9-20.5,6.8c1.2,0.9,2.4,1.9,3.7,2.8c1.9-6.4,1.9-12.8,0.1-19.3
			c-0.4-1.6-2.3-2.3-3.7-1.5c-9.6,5.4-15.5,14.8-16.5,25.7c1.6-0.2,3.3-0.4,4.9-0.7c-4.4-11.9-26.5-3.3-21.1,9.1
			C84.6,122.4,88.9,119.9,87.7,117L87.7,117z"/>
	</g>
</g>
</svg>
