<?xml version="1.0" encoding="utf-8"?>
<!-- Generator: Adobe Illustrator 22.1.0, SVG Export Plug-In . SVG Version: 6.00 Build 0)  -->
<svg version="1.1" id="Слой_1" xmlns="http://www.w3.org/2000/svg" xmlns:xlink="http://www.w3.org/1999/xlink" x="0px" y="0px"
	 viewBox="0 0 166.9 163.7" style="enable-background:new 0 0 166.9 163.7;" xml:space="preserve">
<style type="text/css">
	.st0{fill:#3C2415;}
	.st1{fill:url(#SVGID_1_);}
	.st2{fill:url(#SVGID_2_);}
	.st3{fill:url(#SVGID_3_);}
	.st4{fill:url(#SVGID_4_);}
</style>
<g>
	<path class="st0" d="M101.2,34.3c-5.9-2.9-13.7-2.4-18.4,2.2S78.2,50,83.6,53.7c2.7,1.8,6.2,2.2,9.5,2.4c4,0.3,8.3,0.6,12-1
		c3.7-1.6,6.7-5.8,5.5-9.6c-1.5-4.9-8.2-6.4-10.4-11.1"/>
	<g>
		<path class="st0" d="M102.5,32.1c-7.8-3.4-18.4-3-23.3,5c-4.1,6.7-2.4,16.2,5,19.6c4.6,2.1,11.1,2.4,16,2c4.4-0.4,8.8-2,11.4-5.8
			c2.2-3.3,2.5-7.4,0.3-10.8c-2.5-3.7-7.2-5.1-9.4-9c-1.6-2.8-5.9-0.3-4.3,2.5c2.2,3.9,6.4,5.3,9,8.7c3,3.7-0.5,7.8-4.3,9
			c-3.3,1-7.2,0.6-10.5,0.2c-3.6-0.4-7.6-1-9.4-4.4c-1.3-2.5-1.2-5.8,0-8.4c3-6.3,11.4-6.7,17.1-4.3
			C102.9,37.7,105.4,33.4,102.5,32.1L102.5,32.1z"/>
	</g>
</g>
<g>
	<linearGradient id="SVGID_1_" gradientUnits="userSpaceOnUse" x1="21.9916" y1="89.0816" x2="93.2457" y2="89.0816">
		<stop  offset="0" style="stop-color:#ED1D7F"/>
		<stop  offset="4.421121e-02" style="stop-color:#E25693"/>
		<stop  offset="8.917635e-02" style="stop-color:#D972A4"/>
		<stop  offset="0.1351" style="stop-color:#D284B2"/>
		<stop  offset="0.1819" style="stop-color:#CC90BC"/>
		<stop  offset="0.2298" style="stop-color:#C897C3"/>
		<stop  offset="0.2809" style="stop-color:#C799C6"/>
		<stop  offset="0.6685" style="stop-color:#EF437F"/>
		<stop  offset="0.8876" style="stop-color:#724D9F"/>
		<stop  offset="1" style="stop-color:#394DA1"/>
	</linearGradient>
	<path class="st1" d="M86.4,56.4c-1.8-6.8-9.3-10.5-16.2-11.1c-12.4-1.2-24.9,4.7-33.3,14S24,80.8,22.5,93.2
		c-1.6,13.3,0.4,27.8,9,38c0.6,0.7,1.3,1.5,2.3,1.7c1.9,0.5,3.6-1.3,4.9-2.8c5.6-6.8,12.5-12.4,20.3-16.6
		c8.1-4.3,17.3-7.1,24.2-13.2c12.2-10.8,13.6-31.7,3-44.1"/>
	<g>
		<linearGradient id="SVGID_2_" gradientUnits="userSpaceOnUse" x1="21.4916" y1="89.1022" x2="93.7457" y2="89.1022">
			<stop  offset="0" style="stop-color:#ED1D7F"/>
			<stop  offset="4.421121e-02" style="stop-color:#E25693"/>
			<stop  offset="8.917635e-02" style="stop-color:#D972A4"/>
			<stop  offset="0.1351" style="stop-color:#D284B2"/>
			<stop  offset="0.1819" style="stop-color:#CC90BC"/>
			<stop  offset="0.2298" style="stop-color:#C897C3"/>
			<stop  offset="0.2809" style="stop-color:#C799C6"/>
			<stop  offset="0.6685" style="stop-color:#EF437F"/>
			<stop  offset="0.8876" style="stop-color:#724D9F"/>
			<stop  offset="1" style="stop-color:#394DA1"/>
		</linearGradient>
		<path class="st2" d="M88.8,55.7c-5.5-17.1-29.1-14.6-41.6-7.8c-16.8,9.2-25.3,27.7-27.3,46c-1,9.2-0.3,18.8,3,27.4
			c2,5.1,7.5,17.7,14.8,13.1c3.6-2.3,6.3-6.8,9.5-9.7c3.9-3.5,8.3-6.6,12.9-9c8.7-4.6,18.4-7.5,25.6-14.5
			c12.6-12.3,12.9-33.4,2-46.7c-2-2.5-5.6,1.1-3.5,3.5c8.5,10.3,8.5,26.4,0.4,36.9c-4.6,5.9-11.5,9.2-18.2,12.2
			c-6.7,3.1-13.2,6.3-19,10.9c-2.8,2.2-5.5,4.6-7.9,7.2c-1,1-2.5,3.7-3.8,4.2c-2.6,1.2-4.2-2.2-5.3-4c-4.1-6.7-5.8-14.5-6-22.3
			c-0.4-15.4,4.3-32.2,15.2-43.4c5.8-6,13.5-10.4,21.8-11.8c7.9-1.4,19.6,0.1,22.4,9C85,60.1,89.8,58.8,88.8,55.7L88.8,55.7z"/>
	</g>
</g>
<g>
	<linearGradient id="SVGID_3_" gradientUnits="userSpaceOnUse" x1="54.3146" y1="93.1969" x2="114.7011" y2="93.1969">
		<stop  offset="0" style="stop-color:#ED1D7F"/>
		<stop  offset="4.421121e-02" style="stop-color:#E25693"/>
		<stop  offset="8.917635e-02" style="stop-color:#D972A4"/>
		<stop  offset="0.1351" style="stop-color:#D284B2"/>
		<stop  offset="0.1819" style="stop-color:#CC90BC"/>
		<stop  offset="0.2298" style="stop-color:#C897C3"/>
		<stop  offset="0.2809" style="stop-color:#C799C6"/>
		<stop  offset="0.6685" style="stop-color:#EF437F"/>
		<stop  offset="0.8876" style="stop-color:#724D9F"/>
		<stop  offset="1" style="stop-color:#394DA1"/>
	</linearGradient>
	<path class="st3" d="M89,56.5c5.9-4,14.7-3.1,19.7,2c3.9,3.9,5.4,9.6,5.9,15.1c1,12.3-2.6,25-10.5,34.5c-11.7,14-30.4,19.4-48,24.1
		c-0.4,0.1-0.8,0.2-1.2,0c-0.9-0.4-0.4-1.8,0.1-2.7C64.2,116,60.6,97.4,66.4,82c4.1-10.8,12.9-19.8,23.7-23.9"/>
	<g>
		<linearGradient id="SVGID_4_" gradientUnits="userSpaceOnUse" x1="53.8146" y1="93.1974" x2="115.2011" y2="93.1974">
			<stop  offset="0" style="stop-color:#ED1D7F"/>
			<stop  offset="4.421121e-02" style="stop-color:#E25693"/>
			<stop  offset="8.917635e-02" style="stop-color:#D972A4"/>
			<stop  offset="0.1351" style="stop-color:#D284B2"/>
			<stop  offset="0.1819" style="stop-color:#CC90BC"/>
			<stop  offset="0.2298" style="stop-color:#C897C3"/>
			<stop  offset="0.2809" style="stop-color:#C799C6"/>
			<stop  offset="0.6685" style="stop-color:#EF437F"/>
			<stop  offset="0.8876" style="stop-color:#724D9F"/>
			<stop  offset="1" style="stop-color:#394DA1"/>
		</linearGradient>
		<path class="st4" d="M90.2,58.7c10.5-6.4,19.9,2.1,21.5,12.6c1.7,10.6-0.9,22-6.6,31c-5.3,8.3-13.4,14.1-22.1,18.2
			c-4.4,2.1-9,3.8-13.7,5.3c-4.4,1.4-9.9,3.8-14.5,4c0.7,0.4,1.4,0.8,2.2,1.2c0,0,3.6-6.8,3.9-7.5c1.1-2.8,1.8-5.8,2.4-8.8
			c1.3-6.9,1.7-14,2.8-20.9C68.4,79,76.4,66.3,90.8,60.5c2.9-1.2,1.7-6-1.3-4.8c-15,6.1-24.9,18.8-27.9,34.6
			c-1.6,8.7-1.7,17.6-3.8,26.2c-1.1,4.4-3,7.9-5,11.9c-0.9,1.8-1.6,4.2,0.3,5.7c2.2,1.8,5.7,0,8-0.6c4.5-1.2,8.9-2.5,13.3-4
			c7.6-2.6,15-5.9,21.6-10.6c13.4-9.6,21.3-24.7,21.3-41.2c0-8-1.7-17-8.2-22.2c-6.1-4.9-14.7-5-21.2-1C85,56,87.5,60.4,90.2,58.7
			L90.2,58.7z"/>
	</g>
</g>
<g>
	<path class="st0" d="M95.3,35.9c1.6-4.6,2.5-9.4,2.6-14.2"/>
	<g>
		<path class="st0" d="M97.7,36.6c1.6-4.8,2.5-9.8,2.7-14.9c0.1-3.2-4.9-3.2-5,0c-0.2,4.7-1.1,9.1-2.5,13.6
			C91.8,38.3,96.7,39.6,97.7,36.6L97.7,36.6z"/>
	</g>
</g>
<g>
	<path class="st0" d="M102.1,44.3c3.5-4.8,9.6-7.6,15.5-7.3"/>
	<g>
		<path class="st0" d="M103.9,46.1c3.4-4.4,8.2-6.7,13.8-6.5c3.2,0.1,3.2-4.9,0-5c-6.7-0.2-13.2,2.7-17.3,8
			C98.4,45.1,101.9,48.6,103.9,46.1L103.9,46.1z"/>
	</g>
</g>
</svg>
