<?xml version="1.0" encoding="utf-8"?>
<!-- Generator: Adobe Illustrator 22.1.0, SVG Export Plug-In . SVG Version: 6.00 Build 0)  -->
<svg version="1.1" id="Слой_1" xmlns="http://www.w3.org/2000/svg" xmlns:xlink="http://www.w3.org/1999/xlink" x="0px" y="0px"
	 viewBox="0 0 841.9 677.5" style="enable-background:new 0 0 841.9 677.5;" xml:space="preserve">
<style type="text/css">
	.st0{fill:url(#SVGID_1_);}
</style>
<g>
	<linearGradient id="SVGID_1_" gradientUnits="userSpaceOnUse" x1="147.7238" y1="319.8858" x2="677.3096" y2="319.8858">
		<stop  offset="0" style="stop-color:#55A4DB"/>
		<stop  offset="1" style="stop-color:#55A4DB;stop-opacity:0"/>
	</linearGradient>
	<path class="st0" d="M308.1,463.8C228.1,351.9,172.9,222.3,147.7,87c13.1-7.5,28.5,4.9,38.3,16.5
		c83.3,98.1,153.8,207.2,208.8,323.5c-28.5-132.5-18.8-273.1,27.7-400.5c57.3,100.9,97.7,211.3,119.2,325.4
		c17.6-87.5,64.1-169,130.5-228.6c22,109.8-31.7,219.1-83.7,318.3c-23.5,44.7-46.9,89.4-70.4,134.1c-28.4-31.4-60.6-59.5-95.7-83.3
		c-5.9,40.2-11.8,80.5-17.7,120.7c-40.5-43.6-76.5-91.4-107.1-142.4"/>
</g>
</svg>
